<?xml version="1.0" encoding="UTF-8" standalone="no"?>
<svg
   xmlns:dc="http://purl.org/dc/elements/1.1/"
   xmlns:cc="http://creativecommons.org/ns#"
   xmlns:rdf="http://www.w3.org/1999/02/22-rdf-syntax-ns#"
   xmlns:svg="http://www.w3.org/2000/svg"
   xmlns="http://www.w3.org/2000/svg"
   xmlns:sodipodi="http://sodipodi.sourceforge.net/DTD/sodipodi-0.dtd"
   xmlns:inkscape="http://www.inkscape.org/namespaces/inkscape"
   width="30mm"
   height="30mm"
   viewBox="0 0 29.999999 30"
   version="1.1"
   id="svg8"
   inkscape:version="1.0.2 (e86c870879, 2021-01-15, custom)"
   sodipodi:docname="holding_flag.svg"
   inkscape:export-filename="holding_flag.png"
   inkscape:export-xdpi="500"
   inkscape:export-ydpi="500">
  <defs
     id="defs2" />
  <sodipodi:namedview
     id="base"
     pagecolor="#212529"
     bordercolor="#666666"
     borderopacity="1.0"
     inkscape:pageopacity="0"
     inkscape:pageshadow="2"
     inkscape:zoom="3.959798"
     inkscape:cx="39.659303"
     inkscape:cy="77.634107"
     inkscape:document-units="mm"
     inkscape:current-layer="layer1"
     showgrid="false"
     fit-margin-top="0"
     fit-margin-left="0"
     fit-margin-right="0"
     fit-margin-bottom="0"
     inkscape:window-width="1280"
     inkscape:window-height="983"
     inkscape:window-x="0"
     inkscape:window-y="0"
     inkscape:window-maximized="1"
     inkscape:document-rotation="0" />
  <metadata
     id="metadata5">
    <rdf:RDF>
      <cc:Work
         rdf:about="">
        <dc:format>image/svg+xml</dc:format>
        <dc:type
           rdf:resource="http://purl.org/dc/dcmitype/StillImage" />
        <dc:title />
      </cc:Work>
    </rdf:RDF>
  </metadata>
  <g
     inkscape:label="Camada 1"
     inkscape:groupmode="layer"
     id="layer1"
     transform="translate(132.63807,-60.660995)">
    <g
       id="g3632"
       transform="matrix(1.1257828,0,0,1.1257828,15.014926,-8.6232616)"
       style="stroke-width:0.888271">
      <g
         id="g927"
         transform="matrix(1.0580781,0,0,1.0580781,8.1351373,-1.8942248)"
         style="stroke-width:0.839514">
        <g
           id="g1032"
           transform="matrix(0.00145273,0,0,-0.00145273,-129.06168,78.215329)"
           style="fill:#dedede;fill-opacity:1;stroke:none;stroke-width:20.3864">
          <path
             id="path1028"
             d="m 10310,12228 c -179,-164 -475,-378 -710,-513 -460,-266 -1074,-491 -1790,-655 -102,-23 -202,-46 -222,-51 l -37,-9 14,-48 c 7,-26 23,-81 34,-122 177,-660 423,-1570 533,-1975 38,-143 72,-263 74,-266 4,-7 162,26 339,72 188,48 624,194 648,218 4,4 -55,178 -132,387 -76,208 -216,591 -311,849 -95,259 -192,525 -217,593 -25,68 -44,124 -42,126 2,2 69,22 149,45 516,151 990,374 1437,676 68,46 125,80 127,77 3,-6 699,-1737 722,-1795 10,-26 -402,-322 -676,-487 -248,-149 -582,-306 -870,-409 -80,-28 -152,-55 -161,-59 -14,-6 -5,-38 66,-232 45,-124 157,-434 250,-690 326,-904 446,-1234 449,-1237 10,-10 401,185 606,302 400,227 659,416 1023,749 54,49 99,87 101,85 2,-2 90,-224 196,-494 106,-269 255,-647 331,-838 l 137,-348 -60,-77 c -141,-179 -446,-460 -733,-675 -318,-238 -914,-601 -928,-565 -2,7 -154,425 -337,928 -183,503 -334,917 -336,919 -2,2 -57,-21 -121,-52 -161,-76 -321,-144 -510,-215 -178,-67 -457,-159 -497,-164 -26,-3 -48,44 -1305,2872 l -1279,2875 -134,6 c -73,4 -245,7 -383,8 -1652,7 -3126,-448 -4301,-1327 -186,-138 -424,-338 -424,-354 0,-7 85,-228 189,-492 193,-489 630,-1599 851,-2161 163,-413 822,-2088 1000,-2540 78,-198 315,-801 527,-1340 212,-539 411,-1044 442,-1123 l 57,-142 81,102 c 272,347 726,801 1178,1179 1249,1043 2811,1905 3465,1912 170,2 262,-38 312,-136 29,-58 22,-202 -15,-305 -81,-226 -310,-571 -567,-857 -106,-117 -210,-227 -210,-221 0,3 26,47 58,98 224,357 326,626 292,769 -22,92 -94,139 -214,139 -308,0 -924,-335 -1333,-724 l -106,-101 23,-45 c 104,-206 284,-379 495,-476 523,-240 1348,-170 2345,201 941,350 1913,946 2490,1525 140,141 280,310 358,434 l 53,83 -200,504 c -211,534 -463,1171 -811,2049 -117,294 -301,760 -410,1035 -109,275 -293,741 -410,1035 -117,294 -297,751 -402,1015 -104,263 -192,484 -196,491 -5,8 -26,-5 -62,-38 z M 6398,10813 c 247,-533 378,-829 371,-833 -6,-4 -54,-10 -107,-14 -434,-30 -1127,-161 -1603,-302 -128,-38 -434,-140 -518,-174 -30,-11 -58,-17 -62,-13 -9,10 -750,1860 -756,1890 -5,19 4,24 83,48 514,157 1044,219 1900,223 l 310,2 z M 4507,9403 c 22,-51 546,-1260 880,-2032 62,-145 110,-268 106,-272 -5,-5 -118,-65 -252,-134 -758,-392 -1324,-750 -1854,-1173 -65,-52 -121,-92 -124,-89 -9,9 -953,2467 -953,2480 1,22 338,273 610,454 310,207 641,396 995,569 238,117 534,252 553,253 7,1 25,-25 39,-56 z M 7768,7713 c 11,-27 174,-392 362,-813 188,-421 345,-773 347,-782 4,-13 -5,-19 -39,-27 -108,-27 -417,-135 -563,-197 -406,-172 -917,-450 -1349,-731 -87,-57 -162,-101 -167,-96 -4,4 -130,301 -279,658 -150,358 -339,810 -421,1005 -82,195 -147,360 -145,366 6,15 296,132 586,237 522,189 1022,329 1440,402 74,12 151,24 171,24 34,1 38,-2 57,-46 z"
             inkscape:connector-curvature="0"
             style="fill:#dedede;fill-opacity:1;stroke-width:20.3864" />
          <path
             id="path1030"
             d="M 285,10362 C 131,10293 4,10236 3,10235 0,10233 86,9988 840,7835 1050,7236 1408,6213 1636,5563 1864,4912 2237,3846 2466,3193 2695,2539 3039,1555 3232,1005 3424,455 3583,4 3584,3 c 3,-3 947,374 953,381 3,3 -47,137 -110,298 -136,345 -927,2359 -1462,3723 -207,528 -516,1313 -685,1745 -434,1105 -1184,3014 -1466,3733 -131,334 -241,606 -244,606 -3,-1 -131,-58 -285,-127 z"
             inkscape:connector-curvature="0"
             style="fill:#dedede;fill-opacity:1;stroke-width:20.3864" />
        </g>
        <path
           style="fill:#dedede;fill-opacity:1;stroke:none;stroke-width:0.0296161"
           inkscape:connector-curvature="0"
           d="m -125.37157,79.12079 c 0.0191,0.04598 0.087,0.187883 0.14827,0.314412 l 0.11122,0.228796 -0.0332,0.235181 c -0.0549,0.400053 -0.0549,0.3745 0,0.478035 0.0256,0.04862 0.11886,0.209595 0.20707,0.356584 l 0.15976,0.265852 -0.0179,0.15595 c -0.0102,0.08435 -0.0179,0.278639 -0.0179,0.429453 v 0.274815 l 0.0384,0.06896 c 0.06,0.109871 0.18664,0.207015 0.48567,0.379663 0.0831,0.04733 0.16856,0.102544 0.18938,0.119801 l 0.0371,0.03321 -0.0217,0.06264 c -0.0166,0.04974 -0.0217,0.111185 -0.0217,0.274798 -10e-4,0.240292 0.0166,0.329772 0.0793,0.401358 0.0818,0.09197 0.67871,0.550877 1.0417,0.800104 l 0.23008,0.15847 0.14057,0.0091 c 0.32848,0.02311 0.62501,0.05368 0.79884,0.08313 0.26969,0.04598 0.87043,0.06648 1.37402,0.04598 0.60329,-0.02435 0.96629,-0.07917 1.21552,-0.182791 0.0575,-0.02433 0.21729,-0.125187 0.43841,-0.278631 l 0.34894,-0.241566 0.12912,-0.0079 c 0.22879,-0.01212 0.81419,-0.02684 1.00591,-0.02435 0.45374,0.0068 0.80908,0.05754 2.34159,0.334862 2.09105,0.380897 2.90651,0.513835 3.91497,0.639094 0.69788,0.08823 1.6092,0.167428 1.91341,0.167425 l 0.087,-2.4e-5 v -2.914188 -2.914177 l -0.0383,-2.7e-5 c -0.0511,3e-5 -0.63397,0.04598 -1.85333,0.146971 -1.82392,0.152092 -2.07316,0.171285 -2.58826,0.210899 -1.12861,0.08438 -2.44,0.162334 -3.25289,0.191716 -0.20068,0.0068 -0.42179,0.0154 -0.49081,0.01914 -0.14316,0.0068 -0.87299,-0.02435 -1.04938,-0.04474 -0.0665,-0.0079 -0.13672,-0.02441 -0.16612,-0.03969 -0.11361,-0.05905 -0.36046,-0.25048 -0.71578,-0.55343 -0.26456,-0.227548 -0.4256,-0.334911 -0.59559,-0.400101 -0.13678,-0.05229 -0.15594,-0.05878 -0.50359,-0.168728 -0.25434,-0.08054 -0.32205,-0.115063 -0.56238,-0.283758 -0.35403,-0.24926 -0.5483,-0.375807 -0.6838,-0.442266 l -0.13397,-0.06689 -0.35788,-0.01405 c -0.19682,-0.0079 -0.43841,-0.02311 -0.53683,-0.03329 -0.1572,-0.01543 -0.54578,-0.05368 -0.80012,-0.07667 l -0.0844,-0.0091 -0.18405,0.106122 c -0.10103,0.05888 -0.20962,0.120172 -0.24029,0.138036 -0.11507,0.06382 -0.2403,0.205775 -0.30165,0.33745 -0.0345,0.07541 -0.0486,0.08689 -0.10352,0.08686 -0.023,4.3e-5 -0.083,0.01651 -0.1342,0.03838 -0.0524,0.02049 -0.10737,0.03844 -0.12399,0.03839 -0.018,1e-4 -0.0536,-0.02572 -0.0984,-0.07159 -0.0652,-0.06772 -0.0728,-0.0716 -0.1191,-0.06484 -0.13291,0.01651 -0.2633,0.132923 -0.34639,0.308039 -0.06,0.123959 -0.19683,0.469078 -0.24795,0.62373 -0.0511,0.153387 -0.0524,0.171282 -0.0102,0.268422 z m 0.15594,-0.182799 c 0.0154,-0.04475 0.046,-0.127765 0.069,-0.184051 0.023,-0.05631 0.0652,-0.175097 0.0959,-0.263287 0.0293,-0.08819 0.0665,-0.177675 0.083,-0.198111 l 0.0293,-0.03706 0.0291,0.02599 c 0.0422,0.03836 0.10103,0.135466 0.10103,0.16738 -2e-5,0.01543 -0.0166,0.06522 -0.0384,0.10986 -0.046,0.09715 -0.0486,0.178936 -0.0153,0.474201 l 0.0218,0.190446 -0.0703,0.05631 c -0.0384,0.03069 -0.0818,0.05634 -0.0959,0.05632 -0.0396,1.2e-5 -0.23648,-0.240239 -0.23646,-0.28885 -2e-5,-0.01401 0.0115,-0.06278 0.0268,-0.108614 z m 0.19684,1.055773 c 0.0242,-0.232622 0.0447,-0.302931 0.10227,-0.346398 0.0396,-0.02945 0.0486,-0.0321 0.0869,-0.01913 0.0463,0.01495 0.19938,0.112498 0.24798,0.157166 0.0178,0.01678 0.0332,0.05371 0.0422,0.09839 0.046,0.230066 0.11888,0.415401 0.16872,0.426905 0.12527,0.03204 1.35741,0.109859 1.73317,0.11123 0.1176,1.4e-5 0.11889,-2e-5 0.18534,-0.04995 0.13803,-0.103529 0.19684,-0.112476 0.18149,-0.02945 -0.0128,0.07161 -0.0779,0.203214 -0.10612,0.218544 -0.037,0.01914 -0.17382,0.01787 -0.44352,-0.0068 -0.16104,-0.01543 -0.45375,-0.02311 -0.97779,-0.02945 l -0.74772,-0.0079 -0.0626,0.06649 c -0.0754,0.08187 -0.0984,0.09072 -0.14699,0.05629 -0.0678,-0.04834 -0.24284,-0.301632 -0.2684,-0.38727 -0.0166,-0.05757 -0.0166,-0.05757 0.005,-0.259464 z m 0.42178,-0.702991 c 0.17639,-0.476754 0.40646,-1.06599 0.45119,-1.156728 0.0396,-0.08058 0.0524,-0.09595 0.0779,-0.09593 0.023,5.5e-5 0.0408,0.01438 0.0665,0.05758 0.0435,0.07021 0.0447,0.113823 0.0102,0.204497 -0.0256,0.06524 -0.0268,0.0856 -0.0191,0.268392 0.0102,0.267153 0.014,0.263322 -0.14824,0.259493 l -0.1227,-8.75e-4 -0.0396,0.09719 c -0.0204,0.05373 -0.0473,0.13292 -0.0588,0.175127 -0.0115,0.04223 -0.0486,0.154641 -0.0844,0.251789 -0.0345,0.09594 -0.0626,0.182761 -0.0626,0.194269 1e-5,0.02682 0.0268,0.03968 0.1534,0.07156 0.12907,0.03333 0.20836,0.0294 0.37577,-0.01914 0.2275,-0.06648 0.34638,-0.153369 0.47419,-0.345108 0.0793,-0.117579 0.11374,-0.190435 0.193,-0.405159 0.0626,-0.168721 0.10986,-0.268426 0.15211,-0.319534 0.0166,-0.01914 0.0651,-0.10491 0.10861,-0.191747 0.0843,-0.166192 0.10861,-0.201966 0.13549,-0.201948 0.009,-7.3e-5 0.0435,0.03842 0.0767,0.08561 0.083,0.118839 0.13294,0.169991 0.1649,0.17 0.0154,-2.24e-4 0.10091,-0.04855 0.19043,-0.108603 0.0882,-0.05999 0.17,-0.108614 0.18022,-0.108614 0.0269,4.6e-5 0.0358,0.04474 0.0243,0.144412 -0.0166,0.149554 -0.008,0.163605 0.0793,0.123965 0.0716,-0.03334 0.25309,-0.04734 0.39368,-0.03206 0.0997,0.01137 0.10612,0.02437 0.0447,0.109905 -0.0562,0.07791 -0.30802,0.324661 -0.41411,0.403892 -0.10997,0.08313 -0.15595,0.09332 -0.39367,0.09331 -0.1994,-0.0023 -0.23137,-0.0079 -0.45375,-0.107481 -0.13807,-0.06259 -0.15467,-0.06 -0.18789,0.03692 -0.0319,0.09206 -0.1815,0.379627 -0.24924,0.478044 -0.078,0.113779 -0.239,0.260738 -0.36427,0.332314 -0.0677,0.03963 -0.21089,0.0743 -0.34382,0.08562 l -0.10862,0.0091 -0.13191,-0.08008 c -0.0728,-0.04469 -0.1626,-0.10303 -0.19935,-0.130401 -0.0819,-0.06124 -0.0844,-0.04218 0.0293,-0.348927 z m -0.001,1.70505 c 0.0563,-0.217273 0.0805,-0.254339 0.16872,-0.254342 l 0.0563,3e-5 v 0.369383 0.370654 l 0.10476,0.08442 c 0.17129,0.138001 0.15212,0.134252 0.41029,0.08438 0.6314,-0.121403 0.91132,-0.1636 1.31905,-0.199378 0.48698,-0.04338 0.53555,-0.05108 0.65952,-0.10986 0.10613,-0.04978 0.13933,-0.05493 0.13933,-0.02052 2e-5,0.02433 -0.14956,0.279903 -0.16998,0.292699 -0.0102,0.0045 -0.1214,0.02172 -0.24797,0.0358 -0.74005,0.08187 -0.96372,0.104876 -1.25642,0.127762 -0.38857,0.03205 -0.41413,0.03443 -0.45119,0.06524 -0.0166,0.01134 -0.0523,0.07281 -0.0793,0.135492 -0.0588,0.134284 -0.0907,0.182794 -0.11758,0.182807 -0.0281,-1.2e-5 -0.39384,-0.21954 -0.4829,-0.29057 -0.0371,-0.0293 -0.0703,-0.06648 -0.0742,-0.0831 -0.002,-0.01649 -0.007,-0.173817 -0.008,-0.350212 -0.001,-0.301628 10e-4,-0.328488 0.0294,-0.440964 z m 0.72089,1.321607 c 0.037,-0.154652 0.0728,-0.250507 0.11121,-0.28758 0.0422,-0.04338 0.12527,-0.06648 0.16105,-0.04733 0.0256,0.01214 0.0267,0.02067 0.0166,0.087 -0.006,0.03968 -0.0102,0.149542 -0.0115,0.244126 0,0.149545 0.003,0.184057 0.0307,0.260753 0.0435,0.127752 0.0549,0.135448 0.19683,0.135484 0.19938,2.6e-5 0.48699,-0.041 0.55856,-0.07917 0.0242,-0.01213 0.0805,-0.04859 0.12398,-0.07917 0.10476,-0.07543 0.18661,-0.09197 0.56623,-0.11503 0.16615,-0.01133 0.31697,-0.0256 0.33743,-0.03204 0.0422,-0.01669 0.13164,-0.01789 0.14061,-0.0034 0.0205,0.03207 -0.11376,0.126541 -0.24924,0.173827 -0.0293,0.01133 -0.1176,0.02561 -0.19684,0.03205 -0.25818,0.02311 -0.35916,0.05629 -0.68125,0.23134 -0.29269,0.157213 -0.44352,0.24797 -0.47164,0.282487 -0.014,0.01545 -0.0115,0.02172 0.0153,0.03331 0.0179,0.0091 0.069,0.0205 0.11374,0.02801 0.0575,0.0091 0.10227,0.02557 0.14702,0.05624 0.0411,0.02765 0.0883,0.04708 0.12656,0.05228 0.0332,0.0045 0.0677,0.01137 0.0754,0.01214 0.0127,0.0046 0.0166,0.04596 0.0166,0.153384 v 0.146983 l 0.0486,4.1e-5 c 0.12143,7e-6 0.35788,-0.09073 0.52022,-0.198129 0.0639,-0.04339 0.14314,-0.08562 0.17637,-0.09457 0.0563,-0.01668 0.0614,-0.01544 0.0972,0.01409 0.0203,0.01823 0.0614,0.03579 0.0892,0.04109 0.083,0.01213 0.0819,0.03945 -0.002,0.114969 l -0.0728,0.06519 0.046,0.153405 c 0.0588,0.20323 0.0677,0.242866 0.0549,0.26332 -0.009,0.01418 -0.10613,0.01916 -0.5036,0.02175 l -0.49336,0.0045 -0.0921,-0.07538 c -0.14189,-0.115003 -0.70939,-0.553428 -0.78863,-0.609667 -0.0946,-0.0664 -0.17893,-0.146991 -0.19424,-0.185386 -0.0549,-0.138051 -0.0626,-0.587949 -0.0128,-0.801399 z m 1.77278,-3.159585 c 0.0268,-0.0575 0.0652,-0.11882 0.0856,-0.135483 0.0805,-0.06768 0.30164,-0.12398 0.49848,-0.125198 0.11763,-0.0023 0.12783,0.0023 0.21731,0.04595 0.19554,0.0972 0.47166,0.33613 0.80908,0.700426 0.0895,0.09716 0.11377,0.114991 0.19171,0.145732 0.30933,0.120136 0.47288,0.235227 0.55471,0.389841 0.0844,0.157239 0.13677,0.517646 0.0882,0.607109 -0.0435,0.08056 -0.21346,0.21218 -0.30804,0.237754 -0.037,0.01133 -0.13036,0.0121 -0.30164,0.0068 -0.28503,-0.0091 -0.39623,-0.02311 -0.51253,-0.06127 -0.10352,-0.03324 -0.34127,-0.144454 -0.37579,-0.173806 -0.0128,-0.01133 -0.0549,-0.08561 -0.0908,-0.162268 -0.0779,-0.162319 -0.10613,-0.193016 -0.2748,-0.293986 -0.22858,-0.135886 -0.31057,-0.214748 -0.44097,-0.421788 -0.10476,-0.166174 -0.17766,-0.319539 -0.18788,-0.394949 -0.003,-0.03582 -0.007,-0.108614 -0.006,-0.162339 0.002,-0.08175 0.0102,-0.112476 0.0524,-0.201941 z m 0.81036,4.205113 c 0.0102,-0.01543 0.0217,-0.01401 0.0779,0.0091 0.0373,0.015 0.0716,0.02562 0.0767,0.02178 0.006,-0.0035 0.0127,-0.0549 0.0179,-0.116261 0.0166,-0.219844 0.12014,-0.614777 0.17384,-0.663361 0.0319,-0.0281 0.0844,-0.02178 0.22111,0.03206 0.1214,0.04603 0.14699,0.04733 0.16232,0.0079 0.007,-0.01656 0.0153,-0.159768 0.0191,-0.315719 0.009,-0.328464 0.0242,-0.497195 0.0511,-0.548317 0.0268,-0.05106 0.12398,-0.08178 0.26202,-0.08302 0.10227,4.2e-5 0.11376,0.0034 0.20193,0.04975 0.24407,0.13045 0.46397,0.420519 0.73239,0.962446 0.0767,0.157254 0.14571,0.285039 0.15209,0.285041 0.0179,-1.01e-4 0.0805,-0.08811 0.15083,-0.21217 0.0371,-0.06528 0.0742,-0.123953 0.0844,-0.131692 0.0128,-0.01133 0.0435,0.0045 0.13449,0.06849 0.0639,0.04475 0.12782,0.08819 0.14318,0.09587 0.0575,0.03063 0.0665,0.01785 0.25562,-0.336153 0.0614,-0.113792 0.11504,-0.200686 0.12528,-0.200673 0.0102,4.94e-4 0.069,0.02298 0.13163,0.05234 0.13677,0.06274 0.16233,0.06128 0.18276,-0.01133 0.0217,-0.07429 0.12269,-0.251792 0.19172,-0.339999 l 0.0588,-0.07433 0.0767,0.06769 c 0.0946,0.08312 0.17253,0.176386 0.25179,0.30036 0.27097,0.428177 0.32209,0.492089 0.32209,0.409006 0,-0.04224 0.0575,-0.207044 0.0958,-0.27097 0.0166,-0.03056 0.0498,-0.07023 0.0728,-0.08947 0.0345,-0.02808 0.0498,-0.03334 0.0933,-0.02944 0.14827,0.01787 0.21472,0.123986 0.23262,0.370674 0.003,0.06277 0.009,0.112419 0.009,0.112419 0.001,-2.1e-5 0.0384,-0.03331 0.083,-0.07538 0.0907,-0.08438 0.21218,-0.161055 0.28759,-0.181481 0.10986,-0.0294 0.18408,0.01787 0.30163,0.190486 0.15976,0.232608 0.17639,0.230012 0.36043,-0.06388 0.18789,-0.300352 0.28247,-0.387273 0.41923,-0.387264 0.16231,0.0023 0.27861,0.126594 0.48315,0.524036 0.0435,0.08434 0.0921,0.169937 0.10861,0.189186 l 0.0281,0.0369 0.064,-0.09334 c 0.0358,-0.05103 0.10351,-0.134147 0.15337,-0.184042 0.17127,-0.171268 0.30293,-0.207072 0.44608,-0.12139 0.1225,0.07465 0.34257,0.318228 0.47419,0.5266 0.0217,0.0344 0.0435,0.05869 0.0512,0.05751 0.006,-0.0029 0.0435,-0.04226 0.0818,-0.08687 0.17639,-0.210904 0.2045,-0.230076 0.34765,-0.239021 0.0792,-0.0045 0.10477,-0.0023 0.14699,0.02051 0.10714,0.05533 0.21727,0.219864 0.26841,0.40134 0.0115,0.04104 0.0256,0.07415 0.0307,0.07421 0.0102,4.94e-4 1.305,-0.255634 1.56957,-0.309316 l 0.13038,-0.02687 0.0997,0.07546 c 0.13805,0.105986 0.35915,0.329768 0.41028,0.417959 0.087,0.146964 0.0524,0.247973 -0.0984,0.297804 -0.11122,0.03702 -0.4563,0.03205 -0.87809,-0.01132 -0.44735,-0.04734 -1.40725,-0.154644 -2.33902,-0.263287 -2.31473,-0.270973 -3.04457,-0.341275 -3.82807,-0.371953 -0.16489,-0.0068 -0.4039,-0.0179 -0.53171,-0.02548 -0.3106,-0.0205 -0.42946,0.0034 -0.51637,0.09582 -0.0421,0.0447 -0.0831,0.06528 -0.15338,0.07668 -0.11378,0.01657 -0.18278,0.0486 -0.32337,0.150814 -0.44736,0.320819 -0.43202,0.311877 -0.56495,0.357894 -0.43585,0.150804 -0.96117,0.236447 -1.38807,0.223674 -0.18536,-0.0045 -0.22878,-0.01543 -0.26328,-0.06007 -0.0626,-0.08192 -0.18406,-0.366852 -0.21346,-0.503606 -0.0217,-0.09846 -0.023,-0.112521 -0.009,-0.135539 z"
           id="path922" />
      </g>
    </g>
  </g>
</svg>
