<?xml version="1.0" encoding="UTF-8" standalone="no"?>
<svg
   xmlns:dc="http://purl.org/dc/elements/1.1/"
   xmlns:cc="http://creativecommons.org/ns#"
   xmlns:rdf="http://www.w3.org/1999/02/22-rdf-syntax-ns#"
   xmlns:svg="http://www.w3.org/2000/svg"
   xmlns="http://www.w3.org/2000/svg"
   xmlns:sodipodi="http://sodipodi.sourceforge.net/DTD/sodipodi-0.dtd"
   xmlns:inkscape="http://www.inkscape.org/namespaces/inkscape"
   width="30mm"
   height="30mm"
   viewBox="0 0 29.999999 30"
   version="1.1"
   id="svg8"
   inkscape:version="1.0.2 (e86c870879, 2021-01-15, custom)"
   sodipodi:docname="pwn2win.svg"
   inkscape:export-filename="pwn2win.png"
   inkscape:export-xdpi="500"
   inkscape:export-ydpi="500">
  <defs
     id="defs2" />
  <sodipodi:namedview
     id="base"
     pagecolor="#212529"
     bordercolor="#666666"
     borderopacity="1.0"
     inkscape:pageopacity="0"
     inkscape:pageshadow="2"
     inkscape:zoom="3.959798"
     inkscape:cx="71.100301"
     inkscape:cy="77.634107"
     inkscape:document-units="mm"
     inkscape:current-layer="layer1"
     showgrid="false"
     fit-margin-top="0"
     fit-margin-left="0"
     fit-margin-right="0"
     fit-margin-bottom="0"
     inkscape:window-width="1280"
     inkscape:window-height="983"
     inkscape:window-x="0"
     inkscape:window-y="0"
     inkscape:window-maximized="1"
     inkscape:document-rotation="0" />
  <metadata
     id="metadata5">
    <rdf:RDF>
      <cc:Work
         rdf:about="">
        <dc:format>image/svg+xml</dc:format>
        <dc:type
           rdf:resource="http://purl.org/dc/dcmitype/StillImage" />
        <dc:title></dc:title>
      </cc:Work>
    </rdf:RDF>
  </metadata>
  <g
     inkscape:label="Camada 1"
     inkscape:groupmode="layer"
     id="layer1"
     transform="translate(132.63807,-60.660995)">
    <path
       style="fill:#dedede;fill-opacity:1;stroke:none;stroke-width:0.03527776"
       inkscape:connector-curvature="0"
       d="m -105.41762,63.262786 c -0.0339,0.01414 -0.13852,0.06408 -0.23181,0.109312 l -0.16868,0.08198 -0.17339,-0.0245 c -0.29496,-0.04052 -0.27611,-0.04052 -0.35244,0 -0.0358,0.01885 -0.15454,0.08764 -0.26291,0.15266 l -0.19601,0.117793 -0.11497,-0.01319 c -0.0622,-0.0075 -0.20543,-0.01319 -0.31662,-0.01319 h -0.20261 l -0.0509,0.02827 c -0.081,0.04429 -0.15266,0.137583 -0.27988,0.358091 -0.0349,0.06125 -0.0754,0.124389 -0.0886,0.139467 l -0.0245,0.02733 -0.0462,-0.01602 c -0.0367,-0.01225 -0.082,-0.01602 -0.2026,-0.01602 -0.17716,-9.42e-4 -0.24313,0.01225 -0.2959,0.05842 -0.0678,0.06031 -0.40615,0.500385 -0.5899,0.768011 l -0.11685,0.169622 -0.007,0.103658 c -0.017,0.242182 -0.0396,0.460806 -0.0613,0.588964 -0.0339,0.198835 -0.049,0.641737 -0.0339,1.01302 0.0179,0.444786 0.0584,0.712412 0.13476,0.896169 0.0179,0.04241 0.0923,0.160199 0.20543,0.323224 l 0.1781,0.25726 0.006,0.09518 c 0.009,0.168679 0.0198,0.600273 0.0179,0.741624 -0.005,0.334532 -0.0424,0.596504 -0.24689,1.726374 -0.28082,1.541675 -0.37883,2.14289 -0.47118,2.8864 -0.065,0.51452 -0.12344,1.186411 -0.12344,1.410689 v 0.06408 h 2.14854 2.14854 v -0.02827 c 0,-0.03769 -0.0339,-0.467403 -0.10836,-1.366399 -0.11214,-1.344725 -0.12628,-1.528482 -0.15549,-1.908246 -0.0622,-0.83209 -0.11968,-1.798935 -0.14135,-2.398266 -0.005,-0.147948 -0.0113,-0.310973 -0.0141,-0.36186 -0.005,-0.105542 0.0179,-0.643621 0.033,-0.773664 0.006,-0.049 0.0179,-0.100831 0.0292,-0.122505 0.0433,-0.08387 0.1847,-0.265741 0.40803,-0.527712 0.16774,-0.195065 0.2469,-0.313801 0.29496,-0.439133 0.0386,-0.10083 0.0433,-0.114965 0.12438,-0.371283 0.0594,-0.187526 0.0848,-0.237471 0.2092,-0.414631 0.18376,-0.26103 0.27705,-0.404266 0.32606,-0.504154 l 0.049,-0.09895 0.0104,-0.263857 c 0.006,-0.145121 0.017,-0.323224 0.0245,-0.395784 0.0113,-0.115908 0.0396,-0.402381 0.0565,-0.589907 l 0.007,-0.0622 -0.0782,-0.135698 c -0.0434,-0.07444 -0.0886,-0.154544 -0.10178,-0.17716 -0.0471,-0.08481 -0.15171,-0.177161 -0.24878,-0.222393 -0.0556,-0.02544 -0.0641,-0.03581 -0.0641,-0.07633 0,-0.01696 -0.0122,-0.06125 -0.0283,-0.09895 -0.0151,-0.03864 -0.0283,-0.07916 -0.0283,-0.09141 0,-0.01319 0.0189,-0.03958 0.0528,-0.07256 0.0499,-0.04806 0.0528,-0.05371 0.0481,-0.08764 -0.0122,-0.098 -0.098,-0.194123 -0.22711,-0.255375 -0.0914,-0.04429 -0.34584,-0.145121 -0.45986,-0.182815 -0.11308,-0.03769 -0.12628,-0.03864 -0.1979,-0.0075 z m 0.13476,0.114966 c 0.033,0.01131 0.0942,0.03392 0.1357,0.05089 0.0415,0.01696 0.1291,0.04806 0.19412,0.07068 0.065,0.02167 0.13099,0.049 0.14606,0.06125 l 0.0273,0.02167 -0.0189,0.02167 c -0.0283,0.0311 -0.0999,0.07444 -0.12344,0.07444 -0.0113,0 -0.0481,-0.01225 -0.081,-0.02827 -0.0716,-0.03392 -0.13193,-0.03581 -0.34961,-0.01131 l -0.14041,0.01602 -0.0415,-0.05183 c -0.0226,-0.02827 -0.0415,-0.06031 -0.0415,-0.07068 0,-0.02921 0.17716,-0.174333 0.21297,-0.174333 0.0104,0 0.0462,0.0085 0.0801,0.01979 z m -0.77838,0.145121 c 0.17151,0.01791 0.22334,0.03298 0.25538,0.07539 0.0217,0.02921 0.0236,0.03581 0.0141,0.06408 -0.0113,0.03392 -0.0829,0.147006 -0.1159,0.182815 -0.0122,0.01319 -0.0396,0.0245 -0.0726,0.0311 -0.16963,0.03392 -0.30627,0.08764 -0.31475,0.124389 -0.0236,0.09235 -0.081,1.00077 -0.082,1.277819 0,0.0867 0,0.08764 0.0368,0.13664 0.0763,0.101773 0.0829,0.14512 0.0217,0.133812 -0.0528,-0.0094 -0.14983,-0.05748 -0.16114,-0.07821 -0.0141,-0.02733 -0.0132,-0.128159 0.005,-0.326994 0.0113,-0.118735 0.017,-0.334532 0.0217,-0.720893 l 0.006,-0.551271 -0.049,-0.04618 c -0.0603,-0.0556 -0.0669,-0.07256 -0.0415,-0.108369 0.0358,-0.04994 0.22239,-0.179046 0.28553,-0.197892 0.0424,-0.01225 0.0424,-0.01225 0.19129,0.0038 z m 0.51829,0.310973 c 0.3515,0.130044 0.78592,0.299666 0.85282,0.332648 0.0594,0.02921 0.0707,0.03864 0.0707,0.05748 0,0.01696 -0.0104,0.03015 -0.0424,0.049 -0.0518,0.03204 -0.0839,0.03298 -0.15077,0.0075 -0.0481,-0.01885 -0.0631,-0.01979 -0.19789,-0.01414 -0.19695,0.0075 -0.19413,0.01037 -0.1913,-0.109312 l 9.4e-4,-0.09047 -0.0716,-0.02921 c -0.0396,-0.01508 -0.098,-0.03487 -0.12911,-0.04335 -0.0311,-0.0085 -0.11402,-0.03581 -0.18564,-0.0622 -0.0707,-0.02544 -0.13475,-0.04617 -0.14323,-0.04617 -0.0198,0 -0.0292,0.01979 -0.0528,0.113082 -0.0245,0.09518 -0.0217,0.153602 0.0141,0.277049 0.049,0.167737 0.11308,0.255375 0.25443,0.349609 0.0867,0.05843 0.14041,0.08387 0.29873,0.142294 0.12439,0.04618 0.19789,0.08104 0.23558,0.112139 0.0141,0.01225 0.0773,0.04806 0.14135,0.0801 0.12251,0.0622 0.14889,0.0801 0.14889,0.09989 0,0.0066 -0.0283,0.03204 -0.0631,0.05654 -0.0876,0.06125 -0.12533,0.098 -0.12533,0.121562 0,0.01131 0.0358,0.07444 0.0801,0.140409 0.0443,0.06502 0.0801,0.125332 0.0801,0.132871 0,0.01979 -0.033,0.02639 -0.10648,0.0179 -0.11026,-0.01225 -0.12062,-0.0057 -0.0914,0.05842 0.0245,0.05277 0.0349,0.186585 0.0236,0.290242 -0.008,0.0735 -0.0179,0.07822 -0.081,0.03298 -0.0575,-0.04146 -0.23936,-0.227104 -0.29778,-0.305319 -0.0613,-0.08104 -0.0688,-0.114966 -0.0688,-0.290242 9.4e-4,-0.147006 0.006,-0.170564 0.0792,-0.334532 0.0462,-0.101773 0.0443,-0.114024 -0.0273,-0.138525 -0.0679,-0.02356 -0.27988,-0.133812 -0.35244,-0.183757 -0.0839,-0.05748 -0.19224,-0.176218 -0.24501,-0.268568 -0.0292,-0.04994 -0.0547,-0.155486 -0.0631,-0.25349 l -0.007,-0.0801 0.0594,-0.09706 c 0.033,-0.05371 0.0763,-0.119677 0.0961,-0.147005 0.0452,-0.06031 0.0311,-0.0622 0.25726,0.02167 z m -1.25708,-9.42e-4 c 0.16019,0.04146 0.18752,0.05937 0.18752,0.12439 v 0.04146 h -0.27233 -0.27328 l -0.0622,0.07727 c -0.10177,0.126274 -0.099,0.112139 -0.0622,0.302492 0.0895,0.465518 0.12062,0.671891 0.147,0.972499 0.032,0.359033 0.0377,0.394842 0.081,0.48625 0.0367,0.07821 0.0405,0.102715 0.0151,0.102715 -0.0179,0 -0.20637,-0.110254 -0.2158,-0.125332 -0.004,-0.0075 -0.016,-0.08952 -0.0264,-0.182814 -0.0603,-0.545618 -0.0773,-0.710528 -0.0942,-0.926324 -0.0236,-0.286473 -0.0254,-0.30532 -0.0481,-0.332648 -0.008,-0.01225 -0.0537,-0.03864 -0.0999,-0.05842 -0.099,-0.04335 -0.13476,-0.06691 -0.13476,-0.0867 0,-0.02073 0.16208,-0.290242 0.21391,-0.356206 0.0217,-0.02733 0.049,-0.05183 0.0613,-0.05466 0.0122,-0.0019 0.12815,-0.0047 0.2582,-0.0057 0.22239,-9.42e-4 0.24218,9.43e-4 0.32511,0.02167 z m -0.97439,0.531482 c 0.11403,0.02733 0.1847,0.05371 0.21203,0.08198 0.032,0.0311 0.049,0.09235 0.0349,0.118735 -0.009,0.01885 -0.0151,0.01979 -0.0641,0.01225 -0.0292,-0.0038 -0.11026,-0.0075 -0.17999,-0.0085 -0.11025,0 -0.1357,0.0028 -0.19224,0.02262 -0.0942,0.03204 -0.0999,0.04052 -0.0999,0.145121 0,0.147006 0.0302,0.359033 0.0584,0.411804 0.009,0.0179 0.0358,0.05937 0.0584,0.09141 0.0556,0.07727 0.0678,0.137582 0.0848,0.417458 0.008,0.122505 0.0189,0.233701 0.0236,0.248779 0.0123,0.0311 0.0132,0.09706 0.002,0.103658 -0.0236,0.01508 -0.0933,-0.08387 -0.12816,-0.183758 -0.008,-0.02167 -0.0189,-0.0867 -0.0236,-0.14512 -0.017,-0.190354 -0.0415,-0.264799 -0.17056,-0.50227 -0.11591,-0.215797 -0.18282,-0.326993 -0.20826,-0.347725 -0.0113,-0.01036 -0.016,-0.0085 -0.0245,0.01131 -0.007,0.01319 -0.0151,0.05089 -0.0207,0.08387 -0.007,0.04241 -0.0189,0.07539 -0.0415,0.10837 -0.0207,0.03016 -0.0349,0.06502 -0.0386,0.09329 -0.004,0.0245 -0.008,0.04994 -0.009,0.0556 -0.003,0.0094 -0.0339,0.01225 -0.11308,0.01225 h -0.10837 v 0.03581 c 0,0.08952 0.0669,0.263857 0.14607,0.383534 0.032,0.04712 0.0631,0.105543 0.0697,0.130044 0.0123,0.04146 0.0113,0.04523 -0.0104,0.07162 -0.0132,0.01508 -0.0264,0.04523 -0.0301,0.06596 -0.009,0.06125 -0.0292,0.06031 -0.0848,-0.0019 l -0.0481,-0.05371 -0.11308,0.03392 c -0.14984,0.04335 -0.17905,0.04994 -0.19413,0.04052 -0.0104,-0.0066 -0.0141,-0.07822 -0.016,-0.371284 l -0.003,-0.363744 0.0556,-0.06785 c 0.0848,-0.1046 0.40803,-0.523001 0.44949,-0.581426 0.049,-0.06973 0.10837,-0.131928 0.13664,-0.143236 0.10178,-0.04052 0.43348,-0.04618 0.59085,-0.0094 z m 2.32948,1.307031 c 0.0424,0.01979 0.0876,0.04806 0.0999,0.06314 0.0499,0.05937 0.0914,0.222393 0.0923,0.367514 9.5e-4,0.0867 -9.4e-4,0.09423 -0.0339,0.160199 -0.0716,0.144178 -0.24784,0.347725 -0.5164,0.596503 -0.0716,0.06596 -0.0848,0.08387 -0.10743,0.141352 -0.0886,0.228047 -0.17339,0.348667 -0.28742,0.408977 -0.1159,0.0622 -0.38165,0.100831 -0.44761,0.06502 -0.0594,-0.03204 -0.15643,-0.157371 -0.17528,-0.227105 -0.008,-0.02733 -0.009,-0.09612 -0.005,-0.222393 0.007,-0.210143 0.017,-0.292127 0.0452,-0.37788 0.0245,-0.07633 0.10648,-0.251606 0.12815,-0.277049 0.008,-0.0094 0.0631,-0.04052 0.11968,-0.06691 0.11968,-0.05748 0.1423,-0.07821 0.21674,-0.202603 0.0999,-0.16868 0.15831,-0.22899 0.31097,-0.325109 0.12251,-0.07727 0.23559,-0.130986 0.29119,-0.138525 0.0264,-0.0028 0.0801,-0.0047 0.11968,-0.0038 0.0603,0.0019 0.0829,0.0075 0.14889,0.03864 z m -3.10031,0.597446 c 0.0113,0.0075 0.0104,0.01602 -0.007,0.05748 -0.0113,0.02733 -0.0189,0.05277 -0.016,0.05654 0.002,0.0038 0.0405,0.0094 0.0857,0.01319 0.16209,0.01225 0.45327,0.08858 0.48908,0.128158 0.0207,0.02356 0.016,0.0622 -0.0236,0.163026 -0.0339,0.08952 -0.0349,0.108369 -0.006,0.119677 0.0122,0.0047 0.11779,0.01131 0.23276,0.01414 0.24218,0.0066 0.36657,0.0179 0.40426,0.03769 0.0377,0.01979 0.0603,0.09141 0.0613,0.193181 0,0.07539 -0.002,0.08387 -0.0367,0.14889 -0.0961,0.179988 -0.31003,0.342071 -0.70958,0.539963 -0.11591,0.05654 -0.21015,0.107427 -0.21015,0.112139 0,0.01319 0.065,0.05937 0.15643,0.111197 0.0481,0.02733 0.0914,0.05466 0.0971,0.06219 0.008,0.0094 -0.003,0.03204 -0.0509,0.09895 -0.033,0.04712 -0.065,0.09423 -0.0707,0.105542 -0.0226,0.04241 -0.0132,0.049 0.24784,0.188469 0.0839,0.04523 0.14795,0.08481 0.14795,0.09235 0,0.0075 -0.017,0.05089 -0.0386,0.09706 -0.0462,0.100831 -0.0452,0.119678 0.008,0.134755 0.0547,0.01602 0.18564,0.09046 0.25066,0.141352 l 0.0547,0.04335 -0.0499,0.05654 c -0.0613,0.06973 -0.13004,0.127217 -0.22145,0.185642 -0.31568,0.199777 -0.3628,0.237471 -0.30155,0.237471 0.0311,0 0.15266,0.04241 0.19978,0.07068 0.0226,0.01225 0.0518,0.03675 0.066,0.05371 0.0207,0.02544 0.0245,0.03675 0.0217,0.06879 -0.0132,0.109312 -0.0914,0.158314 -0.27328,0.171507 -0.0462,0.0028 -0.0829,0.0066 -0.0829,0.0066 0,9.42e-4 0.0245,0.02827 0.0556,0.06125 0.0622,0.06691 0.11874,0.15643 0.13381,0.212028 0.0217,0.08104 -0.0132,0.135697 -0.14041,0.222393 -0.1715,0.117793 -0.16962,0.130043 0.0471,0.265741 0.22145,0.138525 0.28553,0.208258 0.28553,0.309089 -9.4e-4,0.119677 -0.0933,0.205431 -0.38636,0.356206 -0.0622,0.03204 -0.12533,0.06785 -0.13947,0.0801 l -0.0273,0.02073 0.0688,0.04712 c 0.0377,0.02638 0.0989,0.07633 0.13569,0.113081 0.12628,0.126274 0.15266,0.223336 0.0895,0.328878 -0.0547,0.09046 -0.23465,0.252548 -0.38825,0.34961 -0.0254,0.01602 -0.0433,0.03204 -0.0424,0.03769 0.002,0.0047 0.0311,0.03204 0.0641,0.06031 0.15548,0.130044 0.16962,0.150775 0.17621,0.256318 0.004,0.05842 9.5e-4,0.07727 -0.0151,0.10837 -0.0405,0.07916 -0.16209,0.160198 -0.2959,0.197892 -0.0302,0.0085 -0.0547,0.01885 -0.0547,0.02262 0,0.0075 0.18847,0.962133 0.22805,1.157198 l 0.0198,0.09612 -0.0556,0.0735 c -0.0782,0.101773 -0.24312,0.264799 -0.30814,0.302493 -0.10837,0.06408 -0.18282,0.03864 -0.21957,-0.07256 -0.0273,-0.08198 -0.0236,-0.336417 0.008,-0.64739 0.0349,-0.329821 0.11402,-1.037521 0.19412,-1.724489 0.19978,-1.706585 0.25161,-2.244664 0.27423,-2.82232 0.005,-0.121563 0.0132,-0.297781 0.0188,-0.392016 0.0151,-0.228989 -0.002,-0.316627 -0.0707,-0.380706 -0.033,-0.0311 -0.0481,-0.06125 -0.0565,-0.113082 -0.0122,-0.08387 -0.0358,-0.134755 -0.1112,-0.238413 -0.23653,-0.32982 -0.22993,-0.318512 -0.26386,-0.416516 -0.11119,-0.321339 -0.17433,-0.708642 -0.16491,-1.023385 0.004,-0.13664 0.0113,-0.16868 0.0443,-0.194123 0.0603,-0.04617 0.27046,-0.135698 0.37129,-0.157371 0.0726,-0.01602 0.0829,-0.01696 0.0999,-0.0066 z"
       id="path922" />
    <g
       aria-label="攻
破"
       id="text817"
       style="color:#000000;font-style:normal;font-variant:normal;font-weight:bold;font-stretch:normal;font-size:5.83424px;line-height:125%;font-family:'A-OTF Shin Go Min';-inkscape-font-specification:'A-OTF Shin Go Min, Bold';font-variant-ligatures:normal;font-variant-caps:normal;font-variant-numeric:normal;font-feature-settings:normal;text-indent:0;text-align:center;text-decoration:none;text-decoration-line:none;text-decoration-style:solid;text-decoration-color:#000000;letter-spacing:0px;word-spacing:0px;text-transform:none;writing-mode:lr-tb;direction:ltr;baseline-shift:baseline;text-anchor:middle;white-space:normal;clip-rule:nonzero;display:inline;overflow:visible;visibility:visible;opacity:1;isolation:auto;mix-blend-mode:normal;color-interpolation:sRGB;color-interpolation-filters:linearRGB;solid-color:#000000;solid-opacity:1;fill:#dedede;fill-opacity:1;fill-rule:nonzero;stroke:none;stroke-width:0.330729px;stroke-linecap:butt;stroke-linejoin:round;stroke-miterlimit:4;stroke-dasharray:none;stroke-dashoffset:0;stroke-opacity:1;marker:none;color-rendering:auto;image-rendering:auto;shape-rendering:auto;text-rendering:auto;enable-background:accumulate">
      <path
         d="m -109.41681,80.841636 0.56009,0.560087 c 0.42006,-0.09335 0.59509,-0.145856 0.98599,-0.268375 l 0.21003,0.390894 0.56008,0.560087 c 0.21004,-0.06418 0.88681,-0.262541 1.48774,-0.764286 0.51341,0.443403 0.84013,0.624264 1.08516,0.752617 l 0.47841,-1.020992 -0.57759,-0.414231 c -0.2042,-0.07001 -0.22753,-0.07585 -0.30338,-0.11085 0.34422,-0.571756 0.47258,-1.248528 0.52508,-1.791112 h 0.25671 v -0.851799 l -0.56009,-0.560087 h -0.98598 l -0.53092,-0.525082 -0.8518,-0.105016 c -0.0992,0.361723 -0.14002,0.484242 -0.2042,0.659269 l -0.30338,-0.30338 h -1.90196 v 0.810959 l 0.53675,0.53675 v 1.441057 c -0.10502,0.02917 -0.33255,0.08751 -0.58342,0.122519 z m 1.83195,-3.529715 0.22754,0.227535 c -0.12836,0.297546 -0.26254,0.53675 -0.63593,0.892639 l 0.43173,0.810959 c 0.12252,-0.122519 0.19253,-0.204198 0.27421,-0.315049 0.11085,0.34422 0.23337,0.717612 0.52508,1.184351 0,0 -0.10502,0.07001 -0.15169,0.105016 l -0.0233,-0.250872 -0.56008,-0.560087 c -0.17503,0.06418 -0.29172,0.105016 -0.6301,0.210032 v -1.756106 h 0.54258 z m -1.36521,0.822627 -0.27421,-0.274209 h 0.27421 z m 3.17383,0.04084 c -0.0292,0.280044 -0.0875,0.799291 -0.4259,1.341875 -0.21003,-0.315049 -0.3909,-0.6476 -0.54259,-1.341875 z m -1.69777,1.522737 0.35589,0.355888 0.0233,0.27421 c -0.21003,0.116684 -0.47257,0.245038 -1.00349,0.385059 l 0.13419,0.250873 c -0.19253,0.06418 -0.45507,0.145856 -0.8343,0.233369 l -0.4084,-0.402562 c 0.75846,-0.186696 1.30104,-0.390894 1.78528,-0.583424 z m 1.07934,-2.374536 c 0.0467,-0.128353 0.07,-0.19253 0.11085,-0.320883 l 0.32672,0.320883 z m 1.68609,0.268375 0.37339,0.373391 v 0.583424 h -0.2392 c -0.0583,0.665104 -0.18086,1.336041 -0.53092,1.901963 -0.19253,-0.08751 -0.32671,-0.180862 -0.50174,-0.303381 0.21003,-0.320883 0.52508,-0.816793 0.64177,-1.971973 h 0.2567 z m -0.0117,3.2205 0.43174,0.309215 -0.31505,0.700109 c -0.1867,-0.110851 -0.31505,-0.198364 -0.47257,-0.320883 z m -2.73625,0.647601 c 0.4784,-0.145856 0.84013,-0.338386 1.26603,-0.676772 0.19253,0.186696 0.28587,0.268375 0.46674,0.402563 -0.45508,0.379225 -0.94515,0.571755 -1.32438,0.68844 z"
         style="font-style:normal;font-variant:normal;font-weight:bold;font-stretch:normal;font-size:5.83424px;font-family:'A-OTF Shin Go Min';-inkscape-font-specification:'A-OTF Shin Go Min, Bold';font-variant-ligatures:normal;font-variant-caps:normal;font-variant-numeric:normal;font-feature-settings:normal;text-align:center;writing-mode:lr-tb;text-anchor:middle;fill:#dedede;fill-opacity:1;stroke-width:0.330729px"
         id="path871" />
      <path
         d="m -109.07842,83.728984 c -0.11669,0.355889 -0.23337,0.641767 -0.49591,0.968484 l 0.22753,1.003489 0.16336,0.163359 v 1.347709 l 0.56009,0.560087 h 0.69427 v -0.315049 h 0.62427 l 0.49591,0.4259 c 0.11668,-0.198364 0.14002,-0.256707 0.16919,-0.320883 l 0.32088,0.320883 c 0.4084,-0.140022 0.71761,-0.338386 0.98599,-0.560087 0.33839,0.274209 0.60676,0.408397 0.91598,0.530916 l 0.37922,-0.910142 -0.57759,-0.449236 -0.0292,-0.0058 c 0.16919,-0.309215 0.25671,-0.554253 0.31505,-0.857634 v -0.746782 l -0.15753,-0.157525 0.21587,0.02334 c 0.0817,-0.355888 0.11669,-0.682606 0.12835,-1.254361 l -0.56008,-0.560087 h -0.69428 l -0.36755,-0.4259 h -0.7993 v 0.4259 h -0.63593 l -0.26837,-0.268376 h -2.01282 v 0.764286 z m 4.18898,0.595093 h -0.87513 v -0.635933 h 0.29754 c -0.006,0.09918 -0.0175,0.180862 -0.0817,0.414232 l 0.71761,0.08751 c 0.0292,-0.134187 0.0992,-0.437568 0.12252,-0.997655 l 0.37923,0.379226 c -0.006,0.34422 -0.035,0.606761 -0.0875,0.974318 l -0.47258,-0.05834 z m -1.62775,-0.635933 v 0.635933 h -0.27421 v -0.635933 z m -1.89029,0.46674 c 0.0583,-0.227536 0.0992,-0.402563 0.14585,-0.723446 h 0.79346 v 1.201853 c 0,0.787623 -0.0759,1.26603 -0.21587,1.610251 v -2.088658 z m 2.80043,0.915975 c -0.0467,0.19253 -0.11668,0.390894 -0.30338,0.635932 -0.16336,-0.204198 -0.2392,-0.385059 -0.30338,-0.565921 l -0.58926,0.175027 c 0.006,-0.07001 0.006,-0.09918 0.0117,-0.245038 z m -2.64291,-0.186695 v 1.26603 h -0.25671 v -1.26603 z m -0.2392,2.327861 v -0.315049 h 0.62426 l 0.43757,0.373392 h -0.68844 v 0.315049 h -0.43174 l -0.37339,-0.373392 z m 3.59972,-2.619573 0.37339,0.373391 v 0.641766 c -0.0408,0.227536 -0.0992,0.443403 -0.30921,0.816794 -0.22754,-0.08751 -0.36172,-0.157524 -0.53092,-0.256707 0.23921,-0.361722 0.38506,-0.670937 0.46674,-1.096837 z m -1.98947,2.730424 c 0.0992,-0.035 0.12835,-0.04667 0.16335,-0.06418 -0.0933,0.227536 -0.10501,0.250873 -0.14585,0.332552 l -0.37923,-0.320883 h -0.0992 c 0.11669,-0.19253 0.16919,-0.34422 0.2217,-0.484242 z m 2.17617,-0.641766 0.4434,0.320883 -0.25671,0.612595 c -0.38506,-0.186696 -0.47257,-0.256707 -0.6476,-0.396728 0.0467,0.02334 0.0759,0.035 0.1867,0.07585 z m -1.98364,0.565921 c 0.32088,-0.128353 0.53091,-0.274209 0.79345,-0.484242 0.19253,0.157524 0.29755,0.23337 0.51925,0.350054 -0.37339,0.303381 -0.54258,0.408397 -0.89847,0.554253 z m -0.12836,-1.820283 c 0.11669,0.373391 0.32672,0.676772 0.3909,0.77012 -0.2217,0.145856 -0.35006,0.210032 -0.60093,0.30338 0.12835,-0.449236 0.18086,-0.775954 0.21003,-1.0735 z"
         style="font-style:normal;font-variant:normal;font-weight:bold;font-stretch:normal;font-size:5.83424px;font-family:'A-OTF Shin Go Min';-inkscape-font-specification:'A-OTF Shin Go Min, Bold';font-variant-ligatures:normal;font-variant-caps:normal;font-variant-numeric:normal;font-feature-settings:normal;text-align:center;writing-mode:lr-tb;text-anchor:middle;fill:#dedede;fill-opacity:1;stroke-width:0.330729px"
         id="path873" />
    </g>
    <g
       id="g990"
       transform="matrix(-9.3444972e-4,0,0,-9.3444972e-4,-111.27101,72.258034)"
       style="fill:#dedede;fill-opacity:1;stroke:none;stroke-width:37.7526207">
      <path
         id="path936"
         d="m 2295,5704 c -49,-8 -144,-25 -210,-38 -318,-65 -345,-68 -595,-67 -243,2 -490,-12 -535,-29 -38,-14 -28,-42 20,-59 46,-16 176,-18 515,-8 321,9 586,32 825,72 235,39 327,30 527,-49 146,-57 199,-76 220,-76 9,0 30,-12 47,-26 25,-20 31,-34 31,-63 0,-66 -51,-89 -120,-55 -41,21 -53,14 -102,-57 -91,-133 -194,-375 -254,-602 -45,-169 -153,-492 -259,-772 -121,-322 -159,-460 -171,-624 -6,-68 -3,-85 27,-171 l 33,-95 v -225 c 0,-237 -9,-305 -54,-407 -23,-53 -40,-52 -58,2 -23,69 -36,581 -22,877 6,145 14,314 17,376 4,76 2,117 -5,124 -17,17 -52,-66 -45,-106 2,-17 -5,-158 -16,-313 -29,-394 -30,-871 -1,-991 23,-97 64,-188 90,-202 10,-5 47,-16 82,-25 74,-17 110,-50 129,-117 19,-69 16,-108 -10,-129 -48,-39 -190,-66 -501,-94 -360,-32 -541,-38 -885,-26 -181,6 -429,13 -549,16 -120,4 -242,10 -270,16 -28,5 -63,7 -78,4 -36,-8 -46,-41 -20,-67 23,-23 67,-29 427,-58 652,-52 707,-54 1495,-55 755,0 755,0 831,23 88,26 133,28 182,7 52,-21 119,-19 149,5 14,10 42,52 63,91 22,42 69,106 112,151 88,95 113,142 153,289 31,113 45,149 58,149 18,-1 193,-102 457,-267 649,-404 721,-431 1058,-404 231,19 431,58 692,137 154,46 227,54 256,28 12,-10 71,-118 131,-239 216,-431 324,-597 418,-645 55,-28 178,-40 415,-40 244,0 407,-11 660,-45 l 180,-24 25,31 c 141,178 184,252 206,362 9,39 22,79 31,88 27,30 98,51 152,46 82,-8 111,-38 186,-193 50,-102 75,-142 102,-162 85,-65 127,-111 158,-173 62,-122 105,-139 251,-97 49,15 125,31 169,37 158,21 284,110 352,248 37,73 38,80 41,196 3,107 0,135 -27,241 -16,66 -29,120 -28,121 1,1 69,31 150,68 183,81 229,112 267,179 42,72 86,190 99,264 23,123 -6,210 -169,516 -124,233 -184,330 -307,498 -92,127 -112,171 -84,188 6,4 134,6 283,5 221,-1 283,-5 323,-18 67,-21 124,-20 176,4 25,11 66,20 95,20 110,0 319,-54 487,-127 236,-102 354,-132 537,-140 140,-5 172,-14 200,-53 65,-92 338,-160 641,-160 166,0 236,9 339,42 196,63 369,412 291,585 -29,63 -73,86 -426,221 -286,110 -487,195 -1005,425 -553,246 -879,383 -995,420 -44,13 -156,39 -250,57 -208,40 -560,127 -675,169 -97,35 -205,62 -335,86 -153,27 -280,63 -416,115 -399,155 -677,193 -1216,170 -212,-9 -358,-10 -486,-4 -100,5 -236,9 -302,9 -68,0 -135,5 -155,12 -65,23 -208,33 -577,43 -202,5 -399,14 -438,20 -38,6 -128,15 -200,19 -100,7 -142,14 -180,31 -100,44 -144,52 -342,57 -283,8 -537,-23 -903,-109 -134,-31 -203,-42 -292,-46 l -118,-4 54,104 c 30,58 58,122 62,143 6,32 3,40 -16,55 -56,42 -363,159 -499,191 -47,11 -147,40 -223,64 -134,44 -138,45 -300,49 -109,3 -193,-1 -253,-10 z m 1135,-489 c 0,-23 -47,-67 -67,-63 -25,5 -26,22 -3,51 24,30 70,37 70,12 z m 1418,-135 c 28,-19 38,-48 21,-66 -8,-7 -61,-26 -117,-43 -57,-16 -107,-33 -110,-36 -15,-14 35,-35 82,-35 62,0 172,25 204,46 13,8 32,35 42,60 22,50 33,53 91,23 41,-21 43,-26 24,-71 -23,-56 240,-48 580,17 77,15 131,17 375,12 169,-4 368,-14 490,-26 113,-11 275,-28 360,-36 85,-9 261,-20 390,-25 157,-6 253,-14 290,-24 78,-22 117,-20 212,11 74,25 97,28 213,27 200,-1 381,-45 800,-194 293,-104 625,-189 1360,-350 369,-81 412,-96 1066,-398 764,-352 893,-406 1094,-454 207,-49 289,-97 270,-158 -9,-30 -72,-98 -105,-115 -43,-22 -118,-27 -215,-15 -49,6 -132,14 -182,17 -105,6 -119,-4 -53,-37 58,-29 139,-48 279,-64 67,-8 129,-20 137,-27 23,-19 16,-36 -23,-55 -32,-16 -62,-19 -198,-19 -88,0 -194,3 -235,7 l -75,7 67,-33 c 85,-40 97,-51 71,-65 -35,-18 -167,21 -473,142 -202,80 -288,107 -494,157 -89,21 -215,57 -281,80 -333,116 -358,120 -760,145 -347,21 -427,36 -471,88 -13,15 -24,39 -24,52 0,16 -14,35 -41,57 -106,84 -142,124 -194,218 -69,123 -90,149 -105,133 -8,-7 -10,-26 -7,-50 20,-135 20,-143 4,-143 -22,0 -44,65 -82,244 -19,88 -41,166 -49,174 -19,20 -36,7 -36,-28 0,-16 -4,-32 -10,-35 -14,-8 -54,38 -92,104 -53,93 -76,120 -110,123 -24,2 -39,14 -63,48 -39,56 -61,59 -57,10 8,-82 7,-94 -9,-98 -10,-2 -25,10 -38,31 -28,46 -254,264 -258,250 -3,-7 3,-35 11,-64 28,-93 -14,-89 -86,9 -84,115 -117,139 -146,110 -20,-20 -14,-53 25,-151 37,-94 40,-119 28,-217 -6,-43 -2,-71 15,-129 19,-62 22,-88 17,-170 -8,-143 -72,-356 -102,-341 -5,3 -9,37 -8,75 1,39 3,133 4,210 2,77 0,152 -4,168 -10,35 -41,36 -64,0 -15,-23 -19,-57 -23,-213 -3,-102 -9,-191 -14,-198 -17,-28 -27,8 -37,134 -27,364 -31,398 -53,391 -30,-10 -40,-62 -38,-207 1,-153 -7,-191 -33,-156 -8,11 -17,36 -21,55 -12,74 -25,103 -43,96 -43,-19 -51,-15 -125,53 -99,92 -160,117 -261,107 -91,-9 -117,-9 -192,0 -62,8 -63,8 -63,-17 0,-14 8,-32 18,-41 34,-31 128,-67 202,-77 63,-8 79,-15 101,-39 28,-30 76,-154 109,-279 31,-116 63,-341 55,-387 -3,-22 -28,-105 -54,-185 -47,-139 -63,-202 -112,-442 -33,-166 -65,-189 -62,-45 1,96 22,218 65,377 17,63 39,151 50,195 22,94 35,332 19,355 -23,32 -33,-8 -51,-208 -12,-127 -34,-200 -51,-169 -6,10 -15,48 -20,85 -12,90 -18,112 -29,112 -11,0 -23,-43 -50,-185 -12,-60 -28,-125 -36,-145 -15,-34 -16,-34 -30,-15 -13,17 -15,42 -9,151 6,111 4,136 -9,163 -9,17 -20,31 -25,31 -5,0 -10,-33 -13,-74 -5,-112 -43,-137 -68,-44 -12,44 -43,80 -62,73 -9,-4 -13,-38 -14,-123 -1,-64 -9,-150 -18,-191 -27,-128 -36,-114 -50,78 -7,83 -15,153 -19,157 -4,4 -13,2 -20,-5 -9,-8 -14,-90 -18,-289 -9,-390 -43,-567 -165,-864 -24,-59 -44,-116 -44,-128 0,-23 31,-28 48,-7 11,13 154,455 197,606 31,110 50,151 70,151 44,0 39,-80 -20,-308 -78,-298 -229,-622 -291,-622 -7,0 -23,18 -34,39 -10,22 -31,48 -45,60 -38,29 -90,100 -136,186 -31,57 -41,87 -42,127 -1,28 -7,53 -13,55 -19,6 -69,-43 -89,-86 -10,-23 -24,-41 -30,-41 -30,0 -141,146 -191,254 l -25,51 5,-70 c 3,-38 16,-108 30,-155 14,-46 23,-86 21,-89 -10,-9 -44,32 -74,89 -49,91 -72,198 -65,292 8,92 -4,101 -55,43 -28,-32 -31,-42 -31,-103 0,-45 9,-97 26,-153 55,-180 59,-198 46,-211 -29,-29 -113,105 -138,222 -13,66 -13,79 6,176 29,153 25,304 -9,304 -18,0 -30,-36 -41,-124 -6,-48 -20,-110 -31,-138 -23,-59 -22,-68 31,-268 60,-222 56,-248 -23,-165 -91,95 -136,229 -117,348 22,134 5,175 -41,101 -27,-44 -23,-94 21,-274 56,-232 41,-244 -98,-71 -50,61 -56,55 -48,-49 4,-50 3,-90 -2,-90 -17,0 -61,56 -81,103 -11,26 -37,100 -57,165 -43,139 -73,212 -87,212 -27,0 46,-327 103,-461 16,-39 30,-75 30,-80 0,-22 -28,-5 -81,50 -68,69 -98,126 -133,246 -30,104 -54,147 -67,122 -6,-10 0,-52 16,-119 25,-102 32,-178 17,-178 -4,0 -16,13 -25,30 -44,73 -97,115 -97,75 0,-9 16,-48 35,-88 40,-83 46,-137 15,-137 -29,0 -79,57 -147,171 -75,127 -89,146 -99,136 -4,-4 9,-46 30,-93 21,-47 35,-92 32,-100 -11,-28 -45,-13 -95,42 -61,66 -115,161 -172,299 -46,114 -70,152 -89,140 -21,-13 -4,-84 65,-269 36,-96 65,-180 65,-186 0,-18 -27,-11 -53,16 -38,37 -69,108 -158,358 -43,120 -83,224 -89,230 -19,19 -11,-104 15,-229 28,-134 32,-189 13,-183 -21,6 -75,126 -147,330 -83,232 -98,268 -113,268 -14,0 -5,-170 16,-285 20,-112 24,-156 16,-185 -7,-23 -9,-21 -32,30 -47,101 -119,344 -143,483 -4,20 -12,37 -18,37 -10,0 -3,-439 9,-535 l 7,-50 -22,27 c -34,43 -71,132 -82,200 -19,113 8,466 40,526 16,30 14,59 -5,66 -35,13 -55,-29 -94,-198 -25,-106 -29,-115 -47,-91 -29,41 -13,214 36,380 12,38 21,83 21,100 0,16 11,53 25,82 44,96 124,367 112,380 -9,8 -56,-90 -99,-207 -71,-192 -146,-460 -194,-694 -23,-115 -36,-148 -51,-133 -16,16 -2,329 16,350 14,18 12,57 -4,60 -5,1 -20,-23 -31,-52 -29,-71 -50,-96 -70,-81 -8,7 -14,27 -15,44 -2,58 -13,81 -39,81 -18,0 -30,-11 -47,-40 -37,-66 -48,-53 -48,55 1,115 23,178 89,259 24,29 68,94 97,143 29,50 59,92 67,96 8,3 34,-5 58,-18 24,-14 46,-22 49,-18 3,3 16,50 30,104 27,114 42,156 57,165 6,4 8,14 5,23 -8,21 -41,14 -125,-26 -77,-36 -101,-67 -187,-239 -66,-130 -106,-189 -131,-189 -24,0 -26,25 -9,92 25,99 133,361 175,425 22,32 34,60 29,62 -16,5 -49,-30 -75,-82 -14,-26 -40,-64 -59,-84 -42,-45 -90,-161 -145,-354 -51,-179 -69,-211 -99,-175 -10,11 -9,25 3,61 17,48 23,206 7,190 -16,-19 -53,-147 -56,-197 -3,-57 -13,-71 -45,-66 -36,5 -61,66 -67,161 -5,75 -2,91 30,189 20,59 61,161 91,228 45,100 63,128 105,166 83,75 114,144 63,144 -21,0 -69,-48 -101,-102 -27,-46 -76,-88 -102,-88 -33,0 -36,-10 128,414 19,48 32,90 29,93 -13,14 -162,-231 -207,-341 -13,-32 -35,-67 -49,-78 -24,-19 -25,-19 -33,0 -12,26 19,136 83,302 55,143 59,169 30,188 -23,14 -26,49 -7,95 20,46 32,53 138,82 76,21 129,28 279,35 102,5 275,18 385,30 110,12 277,30 370,40 203,22 419,22 453,0 z M 8764,4058 c 33,-47 11,-92 -33,-68 -24,12 -29,58 -9,78 17,17 25,15 42,-10 z m -377,-143 c -6,-112 -41,-293 -92,-476 -35,-127 -45,-146 -65,-134 -19,12 -6,134 29,296 17,75 39,189 51,253 11,65 27,134 35,153 13,31 17,34 31,22 14,-12 16,-29 11,-114 z m 549,80 c 4,-8 1,-22 -6,-30 -16,-19 -40,-2 -40,26 0,23 38,26 46,4 z M 3039,3859 c -6,-16 -15,-29 -20,-29 -15,0 -10,58 8,98 l 17,37 4,-39 c 2,-21 -2,-51 -9,-67 z m 5484,-152 c -2,-111 -42,-280 -98,-409 -39,-93 -78,-142 -88,-113 -8,20 7,99 38,197 29,92 48,176 70,308 9,52 23,106 32,119 14,22 16,22 31,7 14,-14 17,-35 15,-109 z m 552,73 c 9,-15 -22,-60 -41,-60 -20,0 -28,24 -14,49 11,22 44,28 55,11 z m -427,-241 c 7,-165 -116,-559 -175,-559 -24,0 -12,74 52,325 30,118 55,226 55,240 0,40 18,67 43,63 20,-3 22,-10 25,-69 z m -518,6 c 0,-28 -35,-69 -50,-60 -15,9 -12,38 6,63 21,30 44,28 44,-3 z m 688,-47 c 20,-20 14,-129 -13,-229 -30,-116 -167,-514 -195,-569 -11,-22 -28,-40 -37,-40 -26,0 -12,68 72,360 42,146 80,294 85,330 8,74 42,160 62,160 8,0 19,-5 26,-12 z m -5700,-40 c 24,-27 42,-70 42,-104 0,-19 -5,-24 -24,-24 -46,0 -90,86 -66,129 14,27 22,26 48,-1 z m 5840,-105 c 3,-49 1,-61 -17,-77 -12,-11 -24,-16 -29,-12 -11,12 -7,86 7,129 17,52 33,35 39,-40 z m -6038,13 c 14,-18 10,-58 -7,-63 -16,-6 -47,43 -39,62 7,19 30,19 46,1 z m 488,-19 c 5,-38 -14,-60 -39,-46 -21,11 -24,31 -8,60 15,28 43,20 47,-14 z m -1070,-82 c -13,-29 -38,-33 -38,-7 0,23 8,32 31,32 16,0 17,-3 7,-25 z m 306,-1 c 7,-18 -3,-64 -14,-64 -11,0 -20,26 -20,56 0,27 24,33 34,8 z m 146,-36 c 7,-24 18,-53 26,-66 14,-21 20,-23 69,-17 49,7 54,5 66,-16 16,-30 17,-125 1,-141 -9,-9 -17,-7 -34,9 -13,12 -50,37 -83,55 -66,37 -105,86 -105,130 0,30 28,88 42,88 4,0 12,-19 18,-42 z m 6117,-115 c -11,-137 -73,-331 -167,-528 -50,-103 -76,-143 -86,-133 -9,10 42,195 96,348 29,80 57,168 64,197 6,30 23,64 37,80 33,35 49,65 49,92 0,12 3,21 6,21 4,0 4,-35 1,-77 z m -1163,25 c 7,-12 3,-42 -13,-105 -23,-88 -41,-171 -59,-273 -6,-30 -15,-68 -22,-85 -11,-29 -12,-30 -27,-10 -19,25 -12,134 18,280 40,192 69,246 103,193 z m -534,-122 c -1,-21 -1,-21 -15,-2 -8,11 -15,29 -15,40 1,21 1,21 15,2 8,-11 15,-29 15,-40 z m 1988,42 c 17,-17 15,-66 -7,-123 -10,-27 -33,-117 -51,-198 -62,-295 -233,-721 -277,-694 -17,10 0,69 78,275 139,368 209,593 209,674 0,39 14,78 28,78 5,0 13,-5 20,-12 z m -161,-101 c -8,-117 -202,-681 -247,-722 -38,-35 -35,11 9,139 67,191 91,276 98,341 11,113 95,315 130,315 14,0 15,-10 10,-73 z m -1127,48 c 17,-20 8,-69 -36,-202 -61,-183 -111,-272 -128,-227 -8,21 7,85 56,232 47,148 74,212 86,212 5,0 15,-7 22,-15 z m -4280,-21 c 13,-33 13,-86 -1,-121 -10,-26 -11,-27 -24,-10 -29,40 -26,157 5,157 6,0 15,-12 20,-26 z m 3684,-85 c -2,-108 -23,-199 -108,-470 -113,-358 -228,-599 -286,-599 -18,0 -18,3 -6,43 7,23 45,121 84,217 86,214 117,309 182,560 56,216 87,318 103,338 23,29 32,4 31,-89 z m 2009,-69 c 0,-36 -17,-140 -37,-231 -49,-228 -53,-259 -32,-259 38,0 98,92 117,180 12,55 28,61 43,17 13,-36 -22,-172 -73,-287 -23,-50 -55,-141 -71,-202 -46,-166 -131,-358 -159,-358 -5,0 -14,7 -21,15 -17,21 5,100 70,255 81,194 100,290 57,298 -20,4 -53,-60 -181,-356 -83,-193 -106,-237 -121,-231 -23,9 -3,92 59,245 86,211 141,361 210,569 31,94 65,185 76,203 16,26 20,50 20,116 0,86 4,99 30,94 12,-3 15,-17 13,-68 z m -1128,40 c 3,-5 -1,-35 -9,-67 -8,-32 -20,-92 -26,-133 -29,-178 -213,-663 -272,-716 -15,-15 -21,-16 -27,-5 -12,19 3,76 58,213 66,166 103,273 162,468 69,226 92,275 114,240 z m -5555,-49 c 13,-25 3,-51 -20,-51 -10,0 -21,7 -24,16 -7,17 10,54 24,54 5,0 14,-9 20,-19 z m 5385,-21 c 8,-13 -31,-199 -57,-268 -11,-31 -34,-75 -49,-97 -18,-24 -33,-64 -40,-100 -22,-123 -34,-160 -51,-163 -46,-9 -27,111 47,294 29,73 61,165 70,205 9,41 23,89 31,107 13,31 37,42 49,22 z m 250,-189 c 7,-23 -20,-135 -43,-173 -24,-41 -35,-23 -28,43 13,113 53,186 71,130 z m -5267,-49 c 13,-23 21,-49 18,-57 -14,-37 -156,3 -156,44 0,29 48,63 84,59 24,-2 36,-12 54,-46 z m 4392,19 c 25,-16 14,-69 -59,-288 -126,-375 -251,-633 -308,-633 -21,0 -12,30 49,170 105,240 160,387 194,514 39,148 59,203 81,229 18,19 22,20 43,8 z m 2164,-87 c 18,-48 -30,-226 -129,-480 -76,-194 -110,-264 -130,-264 -34,0 -9,97 90,350 42,105 86,230 99,279 33,123 54,157 70,115 z m -7226,-78 c 6,-14 17,-52 23,-85 11,-53 11,-65 -4,-96 -13,-28 -22,-36 -40,-33 -20,3 -22,8 -22,73 1,81 13,165 24,165 4,0 13,-11 19,-24 z m 6032,-56 c 0,-109 -135,-472 -209,-560 l -20,-25 -1,23 c 0,12 12,51 26,85 15,34 50,132 79,218 76,227 125,328 125,259 z m -160,-34 c 0,-74 -124,-384 -223,-556 -49,-86 -67,-98 -67,-44 0,34 158,452 212,558 41,82 78,102 78,42 z m 1474,-57 c 0,-51 -10,-91 -48,-194 -55,-149 -106,-258 -123,-263 -6,-2 -17,6 -22,17 -17,31 1,95 75,269 36,83 68,169 71,190 6,37 19,54 38,48 6,-1 10,-32 9,-67 z m -6707,35 c 24,-24 25,-30 20,-102 -6,-85 -50,-232 -77,-257 -15,-14 -18,-14 -32,2 -27,32 -40,86 -45,200 -5,95 -3,116 11,138 32,49 85,57 123,19 z m 301,-20 c 63,20 95,-83 46,-152 -22,-32 -40,-14 -54,54 -6,30 -16,54 -21,54 -5,0 -9,-4 -9,-9 0,-15 -50,-62 -60,-56 -15,9 -12,52 6,88 22,42 35,49 56,31 9,-9 25,-13 36,-10 z m -700,-89 c 4,-115 -10,-157 -35,-102 -33,71 -23,192 15,185 14,-3 17,-16 20,-83 z m 1991,55 c 23,-12 45,-64 37,-85 -9,-24 -40,-3 -60,40 -23,47 -13,65 23,45 z m -1830,-17 c 14,-28 31,-155 31,-237 0,-108 -23,-156 -50,-105 -16,29 -34,255 -26,312 8,49 27,62 45,30 z m 4688,-29 c 3,-9 -8,-57 -26,-108 -17,-50 -31,-104 -31,-119 0,-32 -125,-280 -175,-349 -26,-35 -42,-48 -60,-48 -14,0 -25,1 -25,3 0,18 168,393 241,540 49,96 64,112 76,81 z m 1037,-55 c -2,-57 -141,-363 -151,-333 -2,6 10,47 27,90 17,43 39,114 50,156 20,82 46,131 64,125 6,-2 11,-20 10,-38 z M 5052,2043 c 35,-32 9,-83 -27,-53 -21,18 -19,70 3,70 3,0 14,-7 24,-17 z m 2506,-31 c 8,-86 -96,-317 -250,-554 -46,-72 -68,-93 -68,-68 0,31 168,437 241,581 29,59 44,79 57,77 11,-2 18,-15 20,-36 z m -2152,-7 c 6,-24 0,-44 -10,-34 -11,11 -17,59 -7,59 6,0 13,-11 17,-25 z m -667,-88 c 16,-20 26,-77 13,-77 -16,0 -42,41 -42,67 0,26 12,30 29,10 z m 3771,-110 c 0,-35 -33,-97 -51,-97 -14,0 -7,51 15,104 18,43 36,40 36,-7 z m -982,-231 c -4,-30 -36,-101 -103,-226 -111,-206 -140,-247 -161,-229 -24,20 -15,55 27,105 22,27 79,127 127,221 89,178 119,212 110,129 z m 132,-5 c 0,-20 -13,-41 -25,-41 -21,0 -28,19 -15,35 14,17 40,20 40,6 z M 6435,1415 c 0,-39 -31,-48 -41,-11 -7,30 2,48 24,44 11,-2 17,-13 17,-33 z m 1313,-9 c 3,-39 -11,-66 -34,-66 -17,0 -18,22 -3,73 13,47 33,44 37,-7 z m -1068,-55 c 0,-19 51,-61 74,-61 16,0 35,-13 55,-37 l 31,-37 44,43 c 38,38 47,42 61,31 10,-8 15,-29 15,-62 0,-68 -30,-98 -98,-98 -27,0 -65,-6 -83,-14 -56,-23 -172,9 -203,56 -23,35 0,108 52,171 15,17 52,24 52,8 z m 840,-103 c 0,-47 -34,-98 -65,-98 -48,0 -42,71 9,112 35,29 56,23 56,-14 z m -450,-14 c 0,-65 -30,-92 -64,-58 -22,22 -20,41 9,69 36,36 55,33 55,-11 z m 580,9 c 0,-35 -38,-99 -51,-86 -14,14 18,113 36,113 10,0 15,-10 15,-27 z"
         inkscape:connector-curvature="0"
         style="fill:#dedede;fill-opacity:1;stroke-width:37.7526207" />
      <path
         id="path938"
         d="m 3828,4812 c -13,-15 -51,-63 -83,-107 -33,-44 -76,-98 -96,-120 -66,-72 -89,-114 -89,-163 0,-30 -13,-72 -40,-134 -23,-50 -39,-95 -37,-101 1,-5 19,12 39,40 36,48 294,465 330,533 33,63 18,98 -24,52 z"
         inkscape:connector-curvature="0"
         style="fill:#dedede;fill-opacity:1;stroke-width:37.7526207" />
      <path
         id="path940"
         d="m 8284,4725 c -4,-9 -2,-21 4,-27 16,-16 47,-5 47,17 0,26 -42,34 -51,10 z"
         inkscape:connector-curvature="0"
         style="fill:#dedede;fill-opacity:1;stroke-width:37.7526207" />
      <path
         id="path942"
         d="m 6682,4268 c -35,-17 -22,-31 54,-55 70,-22 168,-30 178,-14 15,24 -106,82 -172,80 -20,0 -47,-5 -60,-11 z"
         inkscape:connector-curvature="0"
         style="fill:#dedede;fill-opacity:1;stroke-width:37.7526207" />
      <path
         id="path944"
         d="m 3430,4108 c -21,-35 -27,-88 -10,-88 13,0 49,77 50,103 0,27 -18,20 -40,-15 z"
         inkscape:connector-curvature="0"
         style="fill:#dedede;fill-opacity:1;stroke-width:37.7526207" />
      <path
         id="path946"
         d="m 10128,4093 c -69,-72 -80,-103 -37,-103 42,0 109,87 109,143 0,19 -30,2 -72,-40 z"
         inkscape:connector-curvature="0"
         style="fill:#dedede;fill-opacity:1;stroke-width:37.7526207" />
      <path
         id="path948"
         d="m 10598,4073 c -9,-10 -21,-36 -27,-58 -13,-49 -15,-175 -2,-175 12,0 74,76 93,115 30,59 31,83 4,110 -30,29 -47,31 -68,8 z"
         inkscape:connector-curvature="0"
         style="fill:#dedede;fill-opacity:1;stroke-width:37.7526207" />
      <path
         id="path950"
         d="m 9410,3895 c 0,-36 80,-138 96,-122 10,9 -47,105 -72,122 -22,14 -24,14 -24,0 z"
         inkscape:connector-curvature="0"
         style="fill:#dedede;fill-opacity:1;stroke-width:37.7526207" />
      <path
         id="path952"
         d="m 9556,3883 c -4,-10 1,-27 12,-42 38,-51 57,-30 27,29 -18,34 -30,38 -39,13 z"
         inkscape:connector-curvature="0"
         style="fill:#dedede;fill-opacity:1;stroke-width:37.7526207" />
      <path
         id="path954"
         d="m 10874,3824 c -103,-61 -118,-89 -48,-87 57,2 158,83 139,113 -10,17 -28,12 -91,-26 z"
         inkscape:connector-curvature="0"
         style="fill:#dedede;fill-opacity:1;stroke-width:37.7526207" />
      <path
         id="path956"
         d="m 9634,3658 c -7,-12 21,-38 42,-38 17,0 37,27 29,40 -8,14 -62,13 -71,-2 z"
         inkscape:connector-curvature="0"
         style="fill:#dedede;fill-opacity:1;stroke-width:37.7526207" />
      <path
         id="path958"
         d="m 5917,3074 c -11,-12 -8,-47 9,-97 19,-56 29,-59 38,-13 10,54 -24,133 -47,110 z"
         inkscape:connector-curvature="0"
         style="fill:#dedede;fill-opacity:1;stroke-width:37.7526207" />
      <path
         id="path960"
         d="m 5440,2950 c -14,-25 -3,-68 21,-80 14,-8 20,-6 29,9 11,22 13,52 4,75 -9,22 -41,20 -54,-4 z"
         inkscape:connector-curvature="0"
         style="fill:#dedede;fill-opacity:1;stroke-width:37.7526207" />
      <path
         id="path962"
         d="m 4610,2868 c 0,-15 5,-30 10,-33 13,-8 13,25 0,45 -8,12 -10,9 -10,-12 z"
         inkscape:connector-curvature="0"
         style="fill:#dedede;fill-opacity:1;stroke-width:37.7526207" />
      <path
         id="path964"
         d="m 6100,2858 c 0,-23 11,-48 21,-48 14,0 11,24 -6,46 -12,16 -14,17 -15,2 z"
         inkscape:connector-curvature="0"
         style="fill:#dedede;fill-opacity:1;stroke-width:37.7526207" />
      <path
         id="path966"
         d="m 5321,2835 c 0,-11 6,-31 14,-45 13,-22 14,-23 14,-5 0,11 -6,31 -14,45 -13,22 -14,23 -14,5 z"
         inkscape:connector-curvature="0"
         style="fill:#dedede;fill-opacity:1;stroke-width:37.7526207" />
      <path
         id="path968"
         d="m 5596,2833 c -3,-10 -5,-41 -5,-69 2,-87 -19,-96 -75,-34 -20,22 -39,40 -42,40 -4,0 -4,-21 -1,-46 3,-33 13,-54 35,-77 34,-35 46,-78 57,-199 4,-43 11,-78 16,-78 30,0 80,332 65,434 -6,36 -11,46 -26,46 -10,0 -21,-8 -24,-17 z"
         inkscape:connector-curvature="0"
         style="fill:#dedede;fill-opacity:1;stroke-width:37.7526207" />
      <path
         id="path970"
         d="m 6240,2816 c -17,-22 -27,-105 -18,-156 8,-46 93,-225 128,-270 l 20,-25 v 38 c 0,21 -9,74 -20,118 -11,44 -29,122 -40,175 -27,128 -41,154 -70,120 z"
         inkscape:connector-curvature="0"
         style="fill:#dedede;fill-opacity:1;stroke-width:37.7526207" />
      <path
         id="path972"
         d="m 6410,2769 c 0,-98 45,-269 72,-269 17,0 4,111 -28,228 -15,56 -31,102 -36,102 -4,0 -8,-27 -8,-61 z"
         inkscape:connector-curvature="0"
         style="fill:#dedede;fill-opacity:1;stroke-width:37.7526207" />
      <path
         id="path974"
         d="m 6590,2673 c 1,-26 34,-96 54,-112 46,-39 32,55 -16,106 -26,28 -38,29 -38,6 z"
         inkscape:connector-curvature="0"
         style="fill:#dedede;fill-opacity:1;stroke-width:37.7526207" />
      <path
         id="path976"
         d="m 6814,2577 c -17,-50 -42,-116 -55,-144 -25,-58 -20,-79 10,-42 49,59 116,279 85,279 -5,0 -23,-42 -40,-93 z"
         inkscape:connector-curvature="0"
         style="fill:#dedede;fill-opacity:1;stroke-width:37.7526207" />
      <path
         id="path978"
         d="m 2420,4595 c -7,-8 -38,-90 -70,-182 -32,-93 -75,-215 -95,-273 -25,-69 -39,-129 -42,-175 -4,-69 -4,-70 15,-48 10,11 47,106 82,210 34,103 78,223 97,265 39,90 55,162 42,195 -10,27 -13,28 -29,8 z"
         inkscape:connector-curvature="0"
         style="fill:#dedede;fill-opacity:1;stroke-width:37.7526207" />
      <path
         id="path980"
         d="m 1011,3907 c -19,-24 -40,-138 -61,-337 -25,-243 -75,-793 -90,-1000 -21,-285 -24,-305 -39,-305 -28,0 -50,50 -61,135 -25,193 -148,600 -180,600 -26,0 -72,-162 -95,-338 -18,-139 -32,-163 -71,-119 -24,28 -24,28 -24,5 0,-71 79,-480 100,-517 7,-14 9,-14 14,-1 3,8 7,130 9,270 5,268 21,406 55,464 40,69 54,44 87,-156 54,-327 170,-657 215,-612 17,17 30,151 55,582 33,576 47,695 74,654 11,-18 19,-120 31,-412 15,-352 35,-525 74,-640 15,-44 15,-42 11,80 -3,69 -7,303 -11,520 -4,285 -10,415 -20,465 -23,113 -36,336 -26,470 12,163 -7,240 -47,192 z"
         inkscape:connector-curvature="0"
         style="fill:#dedede;fill-opacity:1;stroke-width:37.7526207" />
      <path
         id="path982"
         d="m 1886,3638 c -3,-13 -18,-169 -33,-348 -31,-373 -37,-760 -15,-895 21,-126 53,-296 63,-337 11,-44 36,-50 45,-11 10,38 -3,266 -22,418 -15,108 -17,196 -14,525 6,671 6,663 -6,667 -6,2 -14,-6 -18,-19 z"
         inkscape:connector-curvature="0"
         style="fill:#dedede;fill-opacity:1;stroke-width:37.7526207" />
      <path
         id="path984"
         d="m 1616,3542 c -27,-45 -49,-510 -43,-932 5,-378 13,-442 64,-529 l 28,-46 3,85 c 2,47 -4,162 -14,255 -15,147 -16,221 -8,550 12,532 11,592 -8,611 -9,10 -18,12 -22,6 z"
         inkscape:connector-curvature="0"
         style="fill:#dedede;fill-opacity:1;stroke-width:37.7526207" />
      <path
         id="path986"
         d="M 214,3403 C 116,3305 11,2732 7,2275 c -2,-165 4,-225 22,-225 15,0 21,45 31,212 19,310 104,758 146,775 28,10 47,-24 100,-179 29,-84 53,-148 53,-141 1,6 -10,87 -23,180 -14,92 -34,241 -46,330 -11,90 -23,169 -26,178 -8,20 -29,19 -50,-2 z"
         inkscape:connector-curvature="0"
         style="fill:#dedede;fill-opacity:1;stroke-width:37.7526207" />
      <path
         id="path988"
         d="m 1375,3278 c -10,-44 -35,-286 -46,-448 -22,-330 11,-684 68,-732 18,-14 17,5 -7,307 -15,188 -12,531 6,698 16,143 14,197 -6,197 -5,0 -12,-10 -15,-22 z"
         inkscape:connector-curvature="0"
         style="fill:#dedede;fill-opacity:1;stroke-width:37.7526207" />
    </g>
    <g
       aria-label="為
了"
       id="text821"
       style="color:#000000;font-style:normal;font-variant:normal;font-weight:bold;font-stretch:normal;font-size:5.83424px;line-height:125%;font-family:'A-OTF Shin Go Min';-inkscape-font-specification:'A-OTF Shin Go Min, Bold';font-variant-ligatures:normal;font-variant-caps:normal;font-variant-numeric:normal;font-feature-settings:normal;text-indent:0;text-align:center;text-decoration:none;text-decoration-line:none;text-decoration-style:solid;text-decoration-color:#000000;letter-spacing:0px;word-spacing:0px;text-transform:none;writing-mode:lr-tb;direction:ltr;baseline-shift:baseline;text-anchor:middle;white-space:normal;clip-rule:nonzero;display:inline;overflow:visible;visibility:visible;opacity:1;isolation:auto;mix-blend-mode:normal;color-interpolation:sRGB;color-interpolation-filters:linearRGB;solid-color:#000000;solid-opacity:1;fill:#dedede;fill-opacity:1;fill-rule:nonzero;stroke:none;stroke-width:0.330729px;stroke-linecap:butt;stroke-linejoin:round;stroke-miterlimit:4;stroke-dasharray:none;stroke-dashoffset:0;stroke-opacity:1;marker:none;color-rendering:auto;image-rendering:auto;shape-rendering:auto;text-rendering:auto;enable-background:accumulate">
      <path
         d="m -118.2669,77.591963 c -0.16919,-0.262541 -0.30921,-0.449236 -0.51341,-0.676772 l -0.81679,0.285878 c 0.0583,0.06418 0.16335,0.169193 0.32671,0.390894 h -0.43173 v 0.740949 l 0.56009,0.560087 h 0.54258 c -0.30338,0.600926 -0.68844,1.038494 -1.34187,1.511068 l 0.50757,0.72928 0.2042,0.204198 c -0.0817,0.09335 -0.10501,0.116685 -0.16336,0.180862 l 0.54842,0.548418 0.80513,0.221701 c 0.0758,-0.157524 0.11668,-0.26254 0.14585,-0.373391 l 0.2217,0.221701 0.63594,-0.02917 c 0.0117,-0.140022 0.0117,-0.239204 0.006,-0.338386 l 0.19837,0.198364 0.44923,-0.11085 0.4084,0.408396 h 0.53091 c 0.50175,0 0.67094,-0.425899 0.72928,-0.735114 0.035,-0.210032 0.14586,-0.904307 0.14586,-1.476062 l -0.17503,-0.169193 c 0.0117,-0.09918 0.0175,-0.163359 0.07,-0.758452 l -0.2392,-0.239203 c 0.035,-0.443403 0.0408,-0.589259 0.0467,-0.735115 l -0.56008,-0.560087 h -1.16685 l -0.59509,-0.606761 -0.8693,-0.04667 c -0.0408,0.303381 -0.07,0.460905 -0.11669,0.653435 z m 1.37688,3.739748 c -0.0292,-0.425899 -0.0525,-0.647601 -0.11668,-0.927644 l -0.46674,0.04084 c 0.0817,0.34422 0.0875,0.775954 0.0817,0.962649 l 0.16919,-0.02917 c 0,0.09918 0.0117,0.478408 0.006,0.548419 l -0.37923,0.02334 -0.38506,-0.385059 0.38506,-0.0175 c 0.006,-0.08168 0.0117,-0.145856 0.0117,-0.285878 0,-0.140022 -0.006,-0.490076 -0.0583,-0.805125 l -0.51342,0.02334 c 0.0408,0.297546 0.0175,0.834296 -0.0758,1.096837 l 0.24504,-0.01167 c -0.0583,0.221701 -0.0934,0.326717 -0.15753,0.501744 l -0.60093,-0.169193 -0.29171,-0.291712 0.46091,0.134188 c 0.07,-0.140022 0.21586,-0.460905 0.29754,-1.248527 l -0.4259,-0.06418 c 0.07,-0.07001 0.0934,-0.09918 0.19837,-0.221701 h 2.50872 c -0.006,0.233369 -0.035,0.49591 -0.0758,0.624263 -0.035,0.110851 -0.0758,0.116685 -0.12836,0.122519 -0.0467,-0.379225 -0.0875,-0.513413 -0.12252,-0.612595 l -0.51341,0.05251 c 0.035,0.128354 0.0934,0.332552 0.12252,0.828463 l 0.07,-0.01167 0.11085,0.49591 -0.23337,0.06418 -0.39673,-0.396728 z m 0.87514,0.373391 c 0.4084,0 0.63593,-0.250872 0.74095,-0.72928 0.07,-0.326717 0.15169,-1.196019 0.14002,-1.481897 h -0.1867 c 0.035,-0.280043 0.035,-0.34422 0.0875,-0.927644 h -0.27421 c 0.0408,-0.239204 0.0642,-0.630098 0.07,-0.723445 l 0.38506,0.385059 c -0.0233,0.355889 -0.0292,0.431734 -0.0583,0.72928 l 0.24503,0.239204 c -0.035,0.390894 -0.0408,0.460905 -0.07,0.758451 l 0.18086,0.180862 c -0.006,0.402562 -0.0758,1.03266 -0.14002,1.359378 -0.0467,0.245038 -0.15752,0.583424 -0.55425,0.583424 h -0.44924 l -0.37339,-0.373392 z m -1.98948,-2.211177 c 0.0584,-0.08751 0.0759,-0.122519 0.14586,-0.250872 h 1.73277 c -0.006,0.110851 -0.0117,0.157525 -0.0233,0.250872 z m 0.43174,-0.927644 c 0.035,-0.105016 0.0467,-0.140021 0.0758,-0.233369 h 1.19019 c -0.006,0.06418 -0.0117,0.105016 -0.035,0.233369 z m 0.26837,-0.974318 c 0.035,-0.180861 0.0583,-0.291712 0.0759,-0.379225 l 0.37922,0.379225 z m -1.06766,0.740949 c -0.0467,0.134187 -0.0584,0.163358 -0.14586,0.373391 h -0.54258 l -0.3734,-0.373391 z m -0.92181,2.677916 c 0.12252,-0.105016 0.17502,-0.157525 0.40839,-0.390894 -0.0583,0.180861 -0.12835,0.355888 -0.2392,0.565921 z"
         style="font-style:normal;font-variant:normal;font-weight:bold;font-stretch:normal;font-size:5.83424px;font-family:'A-OTF Shin Go Min';-inkscape-font-specification:'A-OTF Shin Go Min, Bold';font-variant-ligatures:normal;font-variant-caps:normal;font-variant-numeric:normal;font-feature-settings:normal;text-align:center;writing-mode:lr-tb;text-anchor:middle;fill:#dedede;fill-opacity:1;stroke-width:0.330729px"
         id="path876" />
      <path
         d="m -117.88184,86.535253 c 0,0.11085 -0.035,0.145856 -0.16336,0.145856 h -0.84596 l 0.17503,0.828462 0.56008,0.560087 h 1.17852 c 0.47841,0 0.53675,-0.19253 0.53675,-0.501745 v -2.228679 c 0.78179,-0.262541 1.47606,-0.700109 1.82028,-1.055998 v -0.822628 l -0.56008,-0.560087 h -4.60905 v 0.845965 l 0.56008,0.560087 h 1.34771 z m 1.28937,-2.788767 c -0.10502,0.07585 -0.2217,0.163359 -0.74095,0.373391 h -1.82028 l -0.37339,-0.373391 z m -0.94515,3.763085 c 0.47841,0 0.53675,-0.186696 0.53675,-0.501745 v -2.228679 c 0.78179,-0.262541 1.47607,-0.700109 1.82029,-1.055998 v -0.554253 l 0.37339,0.373392 v 0.665103 c -0.0817,0.08751 -0.36756,0.280044 -0.50758,0.379226 -0.53092,0.361723 -1.02099,0.525081 -1.31854,0.618429 v 2.362867 c 0,0.239204 0,0.315049 -0.34422,0.315049 h -1.10267 l -0.37339,-0.373391 z"
         style="font-style:normal;font-variant:normal;font-weight:bold;font-stretch:normal;font-size:5.83424px;font-family:'A-OTF Shin Go Min';-inkscape-font-specification:'A-OTF Shin Go Min, Bold';font-variant-ligatures:normal;font-variant-caps:normal;font-variant-numeric:normal;font-feature-settings:normal;text-align:center;writing-mode:lr-tb;text-anchor:middle;fill:#dedede;fill-opacity:1;stroke-width:0.330729px"
         id="path878" />
    </g>
    <g
       id="g1032"
       transform="matrix(6.2568492e-4,0,0,-6.2568492e-4,-131.70602,73.108034)"
       style="fill:#dedede;fill-opacity:1;stroke:none;stroke-width:56.38253784">
      <path
         id="path1028"
         d="m 10310,12228 c -179,-164 -475,-378 -710,-513 -460,-266 -1074,-491 -1790,-655 -102,-23 -202,-46 -222,-51 l -37,-9 14,-48 c 7,-26 23,-81 34,-122 177,-660 423,-1570 533,-1975 38,-143 72,-263 74,-266 4,-7 162,26 339,72 188,48 624,194 648,218 4,4 -55,178 -132,387 -76,208 -216,591 -311,849 -95,259 -192,525 -217,593 -25,68 -44,124 -42,126 2,2 69,22 149,45 516,151 990,374 1437,676 68,46 125,80 127,77 3,-6 699,-1737 722,-1795 10,-26 -402,-322 -676,-487 -248,-149 -582,-306 -870,-409 -80,-28 -152,-55 -161,-59 -14,-6 -5,-38 66,-232 45,-124 157,-434 250,-690 326,-904 446,-1234 449,-1237 10,-10 401,185 606,302 400,227 659,416 1023,749 54,49 99,87 101,85 2,-2 90,-224 196,-494 106,-269 255,-647 331,-838 l 137,-348 -60,-77 c -141,-179 -446,-460 -733,-675 -318,-238 -914,-601 -928,-565 -2,7 -154,425 -337,928 -183,503 -334,917 -336,919 -2,2 -57,-21 -121,-52 -161,-76 -321,-144 -510,-215 -178,-67 -457,-159 -497,-164 -26,-3 -48,44 -1305,2872 l -1279,2875 -134,6 c -73,4 -245,7 -383,8 -1652,7 -3126,-448 -4301,-1327 -186,-138 -424,-338 -424,-354 0,-7 85,-228 189,-492 193,-489 630,-1599 851,-2161 163,-413 822,-2088 1000,-2540 78,-198 315,-801 527,-1340 212,-539 411,-1044 442,-1123 l 57,-142 81,102 c 272,347 726,801 1178,1179 1249,1043 2811,1905 3465,1912 170,2 262,-38 312,-136 29,-58 22,-202 -15,-305 -81,-226 -310,-571 -567,-857 -106,-117 -210,-227 -210,-221 0,3 26,47 58,98 224,357 326,626 292,769 -22,92 -94,139 -214,139 -308,0 -924,-335 -1333,-724 l -106,-101 23,-45 c 104,-206 284,-379 495,-476 523,-240 1348,-170 2345,201 941,350 1913,946 2490,1525 140,141 280,310 358,434 l 53,83 -200,504 c -211,534 -463,1171 -811,2049 -117,294 -301,760 -410,1035 -109,275 -293,741 -410,1035 -117,294 -297,751 -402,1015 -104,263 -192,484 -196,491 -5,8 -26,-5 -62,-38 z M 6398,10813 c 247,-533 378,-829 371,-833 -6,-4 -54,-10 -107,-14 -434,-30 -1127,-161 -1603,-302 -128,-38 -434,-140 -518,-174 -30,-11 -58,-17 -62,-13 -9,10 -750,1860 -756,1890 -5,19 4,24 83,48 514,157 1044,219 1900,223 l 310,2 z M 4507,9403 c 22,-51 546,-1260 880,-2032 62,-145 110,-268 106,-272 -5,-5 -118,-65 -252,-134 -758,-392 -1324,-750 -1854,-1173 -65,-52 -121,-92 -124,-89 -9,9 -953,2467 -953,2480 1,22 338,273 610,454 310,207 641,396 995,569 238,117 534,252 553,253 7,1 25,-25 39,-56 z M 7768,7713 c 11,-27 174,-392 362,-813 188,-421 345,-773 347,-782 4,-13 -5,-19 -39,-27 -108,-27 -417,-135 -563,-197 -406,-172 -917,-450 -1349,-731 -87,-57 -162,-101 -167,-96 -4,4 -130,301 -279,658 -150,358 -339,810 -421,1005 -82,195 -147,360 -145,366 6,15 296,132 586,237 522,189 1022,329 1440,402 74,12 151,24 171,24 34,1 38,-2 57,-46 z"
         inkscape:connector-curvature="0"
         style="fill:#dedede;fill-opacity:1;stroke-width:56.38253784" />
      <path
         id="path1030"
         d="M 285,10362 C 131,10293 4,10236 3,10235 0,10233 86,9988 840,7835 1050,7236 1408,6213 1636,5563 1864,4912 2237,3846 2466,3193 2695,2539 3039,1555 3232,1005 3424,455 3583,4 3584,3 c 3,-3 947,374 953,381 3,3 -47,137 -110,298 -136,345 -927,2359 -1462,3723 -207,528 -516,1313 -685,1745 -434,1105 -1184,3014 -1466,3733 -131,334 -241,606 -244,606 -3,-1 -131,-58 -285,-127 z"
         inkscape:connector-curvature="0"
         style="fill:#dedede;fill-opacity:1;stroke-width:56.38253784" />
    </g>
    <g
       aria-label="勝
利"
       id="text825"
       style="color:#000000;font-style:normal;font-variant:normal;font-weight:bold;font-stretch:normal;font-size:5.83424px;line-height:125%;font-family:'A-OTF Shin Go Min';-inkscape-font-specification:'A-OTF Shin Go Min, Bold';font-variant-ligatures:normal;font-variant-caps:normal;font-variant-numeric:normal;font-feature-settings:normal;text-indent:0;text-align:center;text-decoration:none;text-decoration-line:none;text-decoration-style:solid;text-decoration-color:#000000;letter-spacing:0px;word-spacing:0px;text-transform:none;writing-mode:lr-tb;direction:ltr;baseline-shift:baseline;text-anchor:middle;white-space:normal;clip-rule:nonzero;display:inline;overflow:visible;visibility:visible;opacity:1;isolation:auto;mix-blend-mode:normal;color-interpolation:sRGB;color-interpolation-filters:linearRGB;solid-color:#000000;solid-opacity:1;fill:#dedede;fill-opacity:1;fill-rule:nonzero;stroke:none;stroke-width:0.330729px;stroke-linecap:butt;stroke-linejoin:round;stroke-miterlimit:4;stroke-dasharray:none;stroke-dashoffset:0;stroke-opacity:1;marker:none;color-rendering:auto;image-rendering:auto;shape-rendering:auto;text-rendering:auto;enable-background:accumulate">
      <path
         d="m -128.49386,77.06105 c 0.0233,0.05834 0.13418,0.373391 0.14585,0.402562 l -0.37922,-0.414231 h -1.50524 v 2.543729 c 0,0.822628 -0.17502,1.336041 -0.2392,1.522736 l 0.6301,0.641767 0.56008,0.560087 c 0.035,-0.09335 0.0583,-0.163359 0.0933,-0.280044 l 0.25087,0.250873 h 0.46091 c 0.32672,0 0.32672,-0.297547 0.32672,-0.46674 l 0.51924,0.519248 c 0.2042,-0.116685 0.41424,-0.245038 0.61843,-0.443402 l 0.3909,0.390894 h 0.59509 c 0.46091,0 0.53092,-0.4259 0.56009,-1.213522 l 0.0117,-0.291712 c 0.0583,0.05834 0.10501,0.09918 0.16335,0.15169 l 0.36173,-0.875136 -0.3909,-0.320883 h 0.29755 v -0.676772 l -0.26838,-0.268375 h 0.14003 v -0.694275 l -0.14586,-0.145856 c 0.0525,-0.122519 0.0817,-0.19253 0.12252,-0.30338 l -0.56009,-0.560087 -0.81679,-0.110851 c -0.0233,0.122519 -0.0408,0.175027 -0.0583,0.239204 l -0.26838,-0.274209 -0.75845,-0.0058 c 0,0.274209 0.006,0.309214 -0.006,0.396728 l -0.26838,-0.355889 z m -0.81096,1.931133 v 0.466739 h -0.23921 v -0.466739 z m 0.59509,-1.65109 0.2042,0.198364 h -0.07 v 0.694275 h 0.77595 c -0.0525,0.157524 -0.0642,0.19253 -0.0992,0.268375 h -0.71761 v 0.676772 h 0.30921 c -0.15169,0.180861 -0.25087,0.274209 -0.40256,0.396728 z m -0.8343,0.950981 v -0.449236 h 0.23921 v 0.449236 z m 2.60791,-0.752617 c 0.0175,-0.11085 0.0233,-0.140021 0.0467,-0.34422 l 0.21587,0.221701 c -0.0175,0.05834 -0.0292,0.07585 -0.0525,0.122519 z m 1.00349,0 c 0.0525,-0.09918 0.0817,-0.15169 0.12835,-0.26254 l 0.41423,0.420065 c -0.0642,0.145856 -0.07,0.163359 -0.12835,0.297546 l 0.18086,0.180861 v 0.431734 h -0.24504 v -0.105016 h -0.78179 c -0.0467,-0.105016 -0.0642,-0.163359 -0.0992,-0.268375 h 0.75262 v -0.694275 z m 0.35005,1.225191 0.37339,0.373391 v 0.414231 h -0.32088 c -0.19253,-0.128353 -0.31505,-0.262541 -0.40256,-0.373391 h 0.35005 z m -2.75376,2.800435 v 0.332552 c 0,0.105016 -0.0175,0.204198 -0.14002,0.204198 h -0.38506 l -0.37339,-0.373391 h 0.19836 c 0.25671,0 0.32672,-0.210033 0.32672,-0.390894 V 79.97817 l 0.2217,0.402562 c 0.14586,-0.11085 0.19837,-0.157524 0.26254,-0.215867 v 0.19253 h 0.53092 c -0.26254,0.484242 -0.77596,0.688441 -0.95682,0.758451 z m -1.30687,-0.624264 c 0.0467,-0.367557 0.0642,-0.484242 0.0759,-0.752617 h 0.26254 v 0.612595 c 0,0.140022 -0.0408,0.140022 -0.11669,0.140022 z m 2.75376,-1.248527 c 0.0175,-0.140022 0.0175,-0.210033 0.0233,-0.34422 h -0.6301 c 0,0.180861 -0.006,0.250872 -0.0117,0.34422 h -0.28004 c 0.14586,-0.198364 0.23337,-0.338386 0.32088,-0.513413 h 0.70011 c 0.0875,0.204198 0.14586,0.30338 0.29171,0.513413 z m -0.32671,-1.190185 0.0875,-0.268375 h 0.14002 c 0.006,0.09918 0.0117,0.145856 0.0292,0.268375 z m -0.0408,2.467883 c 0.15752,-0.239203 0.23337,-0.513413 0.26254,-0.612595 h 0.28004 c -0.0583,0.548419 -0.0759,0.612595 -0.25087,0.612595 z m 1.68026,-1.213521 0.4259,0.34422 -0.2042,0.519247 -0.26838,-0.250872 -0.0292,0.694274 c -0.0408,0.910142 -0.13419,1.038495 -0.37339,1.038495 h -0.51925 l -0.37339,-0.373391 h 0.33255 c 0.49591,0 0.53675,-0.460905 0.57176,-1.505234 0.0992,0.08751 0.11085,0.09918 0.16336,0.15169 z m -1.52274,1.971973 c -0.16336,0.15169 -0.29171,0.245038 -0.50174,0.379225 l -0.4259,-0.425899 c 0.0817,-0.04667 0.44923,-0.280044 0.71177,-0.624264 l 0.13419,0.670938 z m -2.19951,0 -0.0642,0.245038 -0.4084,-0.408397 c 0.0408,-0.140022 0.07,-0.274209 0.10501,-0.490076 l 0.1692,0.653435 z"
         style="font-style:normal;font-variant:normal;font-weight:bold;font-stretch:normal;font-size:5.83424px;font-family:'A-OTF Shin Go Min';-inkscape-font-specification:'A-OTF Shin Go Min, Bold';font-variant-ligatures:normal;font-variant-caps:normal;font-variant-numeric:normal;font-feature-settings:normal;text-align:center;writing-mode:lr-tb;text-anchor:middle;fill:#dedede;fill-opacity:1;stroke-width:0.330729px"
         id="path881" />
      <path
         d="m -130.23247,83.647306 0.36173,0.361723 h -0.47841 v 0.764286 l 0.50174,0.501744 c -0.26254,0.355889 -0.43756,0.507579 -0.57175,0.612595 l 0.21003,0.950982 0.62426,0.653434 c 0.035,-0.04084 0.0992,-0.11085 0.13419,-0.157524 v 0.186696 l 0.56009,0.560087 h 0.79929 v -1.376881 l 0.37339,0.373391 0.2392,-0.402562 0.14586,0.845965 0.56009,0.560087 h 0.93348 c 0.55425,0 0.6651,-0.163359 0.6651,-0.612596 v -4.18315 l -0.56009,-0.560087 h -0.82263 v 0.705943 l -0.32671,-0.320883 h -0.76429 l -0.42006,-0.420065 c -0.62427,0.169193 -1.54024,0.204198 -2.25785,0.198364 z m 3.67557,2.858778 c 0,0.09335 -0.006,0.128353 -0.14585,0.128353 h -0.75262 l 0.16336,-0.285878 h 0.4084 v -2.975462 l 0.32671,0.320883 z m -1.34187,-1.732769 v -0.764286 h -0.75262 v -0.443402 c 0.40256,-0.04084 0.56009,-0.07001 0.81096,-0.128353 l -0.11085,-0.367558 0.23337,0.23337 v 2.549563 c -0.41423,-0.38506 -0.57759,-0.542584 -0.86347,-1.079334 z m -1.55191,-1.149346 v 0.38506 h -0.15752 l -0.36756,-0.367557 z m 3.71641,-0.635932 0.37339,0.373391 v 4.107305 c 0,0.332552 -0.035,0.4259 -0.4784,0.4259 h -0.85764 l -0.37339,-0.373391 h 0.75262 c 0.44923,0 0.58342,-0.19253 0.58342,-0.548419 z m -3.78642,1.785278 c -0.0642,0.116684 -0.0933,0.169193 -0.21587,0.350054 l -0.35005,-0.350054 z m 0.8693,2.747927 v -1.621919 c 0.11669,0.239204 0.19253,0.373391 0.37339,0.618429 v 1.376881 h -0.53091 l -0.37339,-0.373391 z m 0.93348,-1.172683 h 0.21587 l -0.25087,0.4259 -0.4259,-0.420065 0.2567,-0.431734 c 0.0292,0.02334 0.1692,0.145856 0.2042,0.175027 z m -1.73277,0.705943 c -0.0408,0.04667 -0.10501,0.116685 -0.14585,0.163359 l -0.41424,-0.437568 c 0.28005,-0.338386 0.4259,-0.571755 0.56009,-0.822628 z"
         style="font-style:normal;font-variant:normal;font-weight:bold;font-stretch:normal;font-size:5.83424px;font-family:'A-OTF Shin Go Min';-inkscape-font-specification:'A-OTF Shin Go Min, Bold';font-variant-ligatures:normal;font-variant-caps:normal;font-variant-numeric:normal;font-feature-settings:normal;text-align:center;writing-mode:lr-tb;text-anchor:middle;fill:#dedede;fill-opacity:1;stroke-width:0.330729px"
         id="path883" />
    </g>
  </g>
</svg>
